<?xml version="1.0" standalone="no"?>
<!DOCTYPE svg PUBLIC "-//W3C//DTD SVG 20010904//EN"
 "http://www.w3.org/TR/2001/REC-SVG-20010904/DTD/svg10.dtd">
<svg version="1.0" xmlns="http://www.w3.org/2000/svg"
 width="2300.000000pt" height="2300.000000pt" viewBox="0 0 2300.000000 2300.000000"
 preserveAspectRatio="xMidYMid meet">
<metadata>
Created by potrace 1.14, written by Peter Selinger 2001-2017
</metadata>
<g transform="translate(0.000000,2300.000000) scale(0.100000,-0.100000)"
fill="#000000" stroke="none">
<path d="M6794 15190 c-5 -5 -55 -10 -111 -11 -56 -2 -100 -5 -98 -9 2 -4 -2
-7 -10 -7 -8 0 -12 3 -10 7 2 4 -2 7 -10 7 -8 0 -12 -4 -9 -9 8 -13 -10 -10
-25 5 -11 10 -13 10 -7 0 7 -13 -35 -18 -104 -14 -20 2 -22 0 -10 -8 8 -6 10
-11 4 -11 -6 0 -14 3 -18 7 -12 13 -37 12 -42 -2 -4 -8 -16 -12 -32 -9 -21 3
-23 2 -11 -6 9 -5 41 -10 72 -11 33 -1 54 -6 50 -12 -3 -5 3 -4 14 2 11 6 24
6 29 1 5 -4 27 -10 49 -11 22 -2 45 -7 52 -11 6 -5 14 -5 18 2 3 5 12 10 18
10 7 0 6 -4 -3 -10 -11 -7 -2 -10 32 -10 26 0 50 -5 53 -10 5 -8 12 -7 23 2
12 10 14 10 8 1 -5 -9 3 -13 28 -14 48 -2 53 -3 62 -11 4 -4 14 -2 22 5 13 9
14 9 8 0 -5 -10 4 -13 33 -13 23 0 41 -4 41 -10 0 -5 5 -10 11 -10 5 0 8 4 5
8 -3 5 1 9 9 9 8 0 12 -4 9 -9 -3 -4 16 -8 43 -8 35 0 44 -3 33 -10 -8 -5 -10
-10 -4 -10 5 0 15 5 21 11 8 8 13 8 17 0 4 -6 20 -11 35 -11 15 0 31 -4 37 -9
5 -6 32 -11 61 -12 29 -1 50 -6 47 -11 -3 -4 13 -8 36 -8 25 0 39 -4 35 -10
-4 -6 11 -10 38 -10 24 0 47 -3 51 -7 8 -8 14 -10 47 -12 13 -1 18 -5 13 -13
-5 -8 0 -7 11 2 11 9 16 10 11 3 -7 -12 24 -19 63 -14 7 2 10 -2 6 -8 -4 -7 8
-11 34 -11 21 0 41 -5 43 -11 2 -5 18 -11 36 -11 18 -1 35 -5 38 -10 3 -4 14
-8 25 -8 10 0 19 -4 19 -10 0 -5 3 -9 8 -9 24 4 62 -2 58 -10 -3 -4 2 -8 12
-8 54 0 67 -3 52 -13 -11 -7 -7 -10 18 -10 17 0 33 1 35 3 2 1 11 -6 20 -15
10 -9 26 -15 37 -13 11 2 18 0 15 -6 -4 -5 6 -9 20 -9 15 0 24 -4 20 -10 -4
-6 -3 -10 2 -9 22 4 54 -2 49 -9 -2 -4 7 -9 22 -10 14 -1 29 -7 33 -13 3 -6 9
-10 13 -10 24 3 36 0 31 -9 -4 -6 -3 -10 2 -9 26 4 53 -2 48 -12 -4 -6 -1 -10
6 -8 29 3 50 -1 44 -11 -5 -9 24 -15 48 -11 5 1 6 -3 2 -9 -5 -9 15 -15 38
-11 4 0 7 -4 7 -9 0 -6 9 -10 20 -10 11 0 20 -4 20 -10 0 -5 8 -10 18 -10 10
0 24 -6 31 -12 6 -7 15 -14 19 -14 29 -6 51 -18 46 -25 -5 -8 17 -14 39 -10 4
0 7 -3 7 -9 0 -5 7 -10 16 -10 8 0 13 -4 10 -8 -3 -5 1 -9 9 -10 8 -1 22 -3
30 -4 8 -1 12 -5 9 -10 -3 -4 2 -8 10 -8 9 0 16 -4 16 -10 0 -5 9 -10 21 -10
11 0 17 -4 14 -10 -3 -5 3 -10 15 -10 13 0 19 -4 14 -12 -4 -6 -3 -9 2 -6 5 3
25 -3 44 -13 19 -11 30 -19 25 -19 -6 0 3 -7 19 -15 15 -8 35 -15 43 -15 8 0
11 -4 8 -10 -3 -5 1 -10 10 -10 10 0 13 -5 9 -12 -4 -6 -3 -8 3 -5 6 4 23 -5
39 -18 16 -14 33 -25 37 -25 4 0 17 -9 29 -20 12 -11 28 -20 35 -20 8 0 11 -4
8 -10 -3 -5 1 -10 9 -10 9 0 16 -4 16 -10 0 -5 7 -10 16 -10 8 0 12 -4 9 -10
-3 -5 1 -10 9 -10 8 0 20 -8 25 -17 6 -10 11 -14 11 -9 0 5 9 -1 19 -13 11
-12 22 -22 25 -22 3 1 5 -1 4 -5 -2 -3 12 -12 29 -21 18 -8 30 -19 27 -24 -3
-5 0 -9 5 -9 6 0 30 -18 52 -40 23 -22 46 -40 51 -40 5 0 6 -5 2 -12 -4 -6 -3
-8 3 -5 10 7 53 -24 53 -37 0 -9 56 -66 64 -66 7 0 56 -49 56 -57 0 -11 49
-51 55 -44 4 3 5 2 3 -4 -4 -14 27 -57 35 -48 4 3 7 0 7 -8 0 -8 9 -21 19 -29
11 -7 18 -17 15 -22 -3 -4 1 -8 8 -8 14 0 44 -40 40 -53 -1 -5 2 -6 8 -2 5 3
10 1 10 -5 0 -16 47 -60 56 -52 4 4 4 2 1 -4 -4 -7 0 -17 8 -24 8 -7 15 -19
15 -27 0 -8 5 -11 10 -8 6 3 10 1 10 -6 0 -6 8 -19 18 -28 9 -9 23 -28 31 -43
8 -15 18 -25 23 -22 4 3 8 -4 8 -16 0 -12 5 -18 10 -15 6 3 10 0 10 -7 0 -7
14 -28 30 -45 17 -18 32 -36 33 -40 1 -5 6 -7 10 -5 5 1 6 -2 3 -6 -3 -5 3
-20 14 -32 11 -12 17 -27 13 -33 -3 -6 -1 -7 5 -3 7 4 12 1 12 -9 0 -9 5 -13
10 -10 6 3 10 -3 10 -15 0 -12 5 -18 10 -15 6 3 10 -2 10 -12 0 -10 9 -25 20
-33 11 -8 20 -19 20 -25 0 -5 14 -25 30 -42 17 -18 30 -35 29 -39 -2 -7 27
-49 51 -74 16 -16 15 -64 -1 -55 -5 4 -9 -3 -9 -15 0 -12 -4 -18 -10 -15 -5 3
-10 -1 -10 -9 0 -9 -4 -16 -10 -16 -5 0 -10 -7 -10 -15 0 -7 -8 -19 -17 -24
-10 -6 -14 -11 -9 -11 5 0 0 -8 -10 -17 -11 -10 -25 -30 -33 -45 -8 -16 -18
-28 -23 -28 -4 0 -8 -7 -8 -16 0 -8 -4 -12 -10 -9 -5 3 -10 -1 -10 -10 0 -10
-5 -13 -12 -9 -6 4 -8 3 -4 -4 3 -6 -1 -17 -9 -25 -8 -9 -15 -21 -15 -27 0 -6
-4 -8 -10 -5 -5 3 -10 -1 -10 -10 0 -10 -5 -13 -12 -9 -6 4 -8 3 -4 -4 3 -6
-4 -21 -16 -34 -13 -13 -29 -35 -37 -50 -8 -15 -18 -25 -23 -22 -4 3 -8 0 -8
-7 0 -6 -10 -20 -22 -30 -11 -11 -17 -19 -12 -19 5 0 -2 -7 -14 -16 -12 -8
-20 -19 -18 -23 3 -4 -4 -14 -15 -21 -10 -8 -19 -20 -19 -28 0 -7 -4 -10 -10
-7 -5 3 -10 -1 -10 -10 0 -9 -4 -13 -10 -10 -9 5 -11 1 -10 -20 1 -11 -25 -33
-32 -28 -5 2 -8 -1 -8 -7 0 -6 -18 -29 -40 -50 -21 -20 -36 -40 -33 -44 4 -3
-1 -6 -10 -6 -10 0 -17 -7 -17 -16 0 -8 -5 -12 -10 -9 -6 4 -10 3 -9 -2 3 -20
-2 -33 -13 -30 -7 1 -12 -2 -11 -8 1 -10 -29 -43 -34 -37 -2 1 -9 2 -15 2 -9
0 -8 -4 2 -10 13 -8 12 -10 -3 -10 -10 0 -16 -3 -14 -7 6 -10 -19 -34 -27 -26
-3 4 -6 1 -6 -6 0 -16 -26 -42 -34 -34 -3 4 -6 1 -6 -6 0 -7 -5 -9 -10 -6 -6
4 -10 3 -9 -2 3 -20 -2 -34 -11 -28 -5 3 -10 -2 -10 -12 0 -15 -2 -16 -10 -3
-9 13 -10 13 -11 0 -1 -8 -1 -18 0 -22 0 -5 -6 -8 -15 -8 -9 0 -12 -5 -8 -12
4 -6 3 -8 -3 -5 -12 8 -56 -27 -46 -37 3 -3 -1 -6 -11 -6 -9 0 -14 -4 -11 -10
3 -5 0 -10 -7 -10 -8 0 -20 -9 -28 -20 -8 -11 -20 -20 -28 -20 -7 0 -10 -4 -7
-10 3 -5 -1 -10 -10 -10 -9 0 -13 -4 -10 -10 6 -9 -8 -14 -28 -11 -5 1 -6 -3
-2 -9 3 -5 -1 -10 -10 -10 -9 0 -13 -4 -10 -10 3 -5 0 -10 -7 -10 -8 0 -20 -9
-28 -20 -8 -11 -20 -20 -28 -20 -17 0 -43 -25 -35 -34 4 -3 -1 -6 -10 -6 -10
0 -17 -4 -17 -10 0 -5 -6 -10 -13 -10 -7 0 -33 -18 -57 -40 -25 -22 -51 -40
-57 -40 -7 0 -13 -4 -13 -10 0 -5 -6 -10 -12 -10 -7 0 -28 -14 -45 -30 -18
-17 -35 -30 -38 -30 -21 1 -25 -1 -20 -10 5 -9 -16 -15 -38 -11 -5 1 -6 -3 -2
-9 3 -5 -1 -10 -10 -10 -9 0 -13 -4 -10 -10 5 -9 -16 -15 -38 -11 -5 1 -6 -3
-2 -9 3 -5 -1 -10 -9 -10 -9 0 -16 -3 -16 -8 0 -9 -61 -38 -73 -34 -5 1 -6 -2
-2 -8 3 -6 -3 -10 -15 -10 -12 0 -18 -4 -15 -10 3 -5 -3 -10 -14 -10 -12 0
-21 -4 -21 -10 0 -5 -9 -10 -20 -10 -11 0 -20 -4 -20 -10 0 -5 -8 -10 -17 -10
-9 0 -27 -9 -39 -21 -12 -11 -31 -21 -42 -22 -11 0 -18 -5 -16 -9 3 -4 -2 -8
-10 -8 -9 0 -32 -10 -53 -22 -71 -40 -87 -47 -95 -42 -4 3 -8 2 -8 -3 0 -9
-48 -33 -67 -33 -7 0 -13 -4 -13 -10 0 -5 -13 -10 -30 -10 -16 0 -30 -4 -30
-10 0 -5 -9 -10 -19 -10 -11 0 -21 -4 -23 -10 -1 -5 -15 -11 -30 -12 -15 -1
-24 -6 -22 -10 3 -4 -2 -9 -10 -9 -24 -2 -58 -13 -88 -30 -10 -5 -27 -9 -37
-9 -11 0 -23 -4 -26 -10 -3 -5 -21 -10 -38 -10 -24 0 -28 -3 -17 -10 11 -7 7
-10 -17 -10 -17 0 -33 -5 -35 -11 -2 -6 -21 -11 -42 -11 -27 0 -34 -3 -25 -9
10 -6 4 -9 -19 -9 -18 0 -31 -3 -29 -7 3 -5 -9 -9 -26 -10 -17 -1 -34 -8 -38
-14 -5 -8 -8 -7 -12 2 -4 10 -6 10 -6 2 -1 -7 -10 -13 -20 -13 -11 0 -22 -6
-24 -12 -4 -10 -6 -10 -6 0 -1 6 -6 12 -12 12 -5 0 -7 -4 -4 -10 6 -10 -20
-14 -57 -11 -10 1 -18 -3 -18 -8 0 -6 -14 -11 -31 -11 -21 0 -28 -4 -23 -12 5
-8 0 -7 -11 2 -11 9 -16 10 -11 3 5 -10 -3 -13 -28 -13 -20 0 -36 -4 -36 -10
0 -5 -19 -10 -43 -10 -24 0 -47 -3 -51 -7 -8 -8 -14 -10 -47 -12 -13 -1 -18
-5 -13 -13 5 -8 0 -7 -11 2 -10 8 -16 10 -12 4 6 -10 -21 -15 -76 -15 -9 0
-15 -4 -13 -8 3 -4 -18 -9 -47 -10 -28 -1 -56 -6 -61 -11 -6 -6 -27 -10 -49
-10 -28 0 -36 -3 -31 -12 6 -10 5 -10 -7 -1 -9 8 -19 9 -25 3 -5 -4 -22 -10
-39 -13 -16 -2 -37 -7 -46 -11 -9 -4 -20 -6 -25 -5 -5 1 -26 1 -47 0 -28 -1
-36 -4 -31 -13 5 -8 0 -7 -11 2 -11 9 -16 10 -11 3 4 -7 2 -13 -3 -13 -6 0
-11 6 -11 13 0 7 -3 8 -8 2 -4 -6 -23 -12 -42 -14 -19 -1 -41 -8 -49 -14 -9
-8 -12 -8 -8 -1 3 6 0 11 -8 11 -8 0 -12 -4 -10 -7 3 -4 -8 -8 -23 -9 -47 -1
-62 -4 -62 -13 0 -4 23 -8 51 -8 37 0 48 -3 43 -12 -6 -10 -5 -10 7 -1 11 9
19 9 26 2 8 -8 13 -8 17 0 4 6 13 11 19 11 7 0 6 -4 -3 -10 -11 -8 -8 -10 15
-9 80 4 126 -1 119 -13 -6 -10 -4 -10 7 -2 15 12 40 12 74 -1 16 -5 17 -5 5 4
-12 8 -11 10 7 8 12 0 19 -5 17 -9 -8 -13 11 -9 25 5 8 6 11 7 8 2 -3 -6 12
-11 39 -11 30 -1 42 2 37 10 -3 6 0 6 8 -1 17 -17 103 -18 93 -1 -5 7 -3 8 7
2 24 -15 62 -17 53 -2 -5 10 -4 11 7 1 17 -17 63 -17 53 -1 -5 7 -3 8 7 2 23
-14 62 -17 53 -3 -5 8 -3 9 7 3 19 -11 81 -16 74 -5 -3 5 3 8 12 6 10 -2 18
-4 18 -5 0 -1 17 -3 37 -4 20 -1 35 1 32 5 -4 7 70 12 150 9 15 0 34 4 41 10
10 8 15 8 20 0 5 -8 10 -8 20 0 7 6 38 11 69 11 31 1 54 4 51 8 -2 4 2 8 10 8
8 0 12 -5 8 -10 -3 -5 4 -4 15 2 11 6 39 11 62 11 30 0 39 3 34 13 -6 9 -5 9
7 0 9 -7 19 -9 25 -4 5 5 23 11 39 12 17 2 36 8 43 13 9 7 16 5 23 -5 6 -10 9
-10 9 -1 0 7 13 12 31 12 21 0 28 4 23 13 -5 7 0 6 11 -3 11 -9 16 -10 11 -2
-5 9 5 12 38 12 25 0 46 4 46 8 0 4 12 9 26 10 15 1 32 6 38 10 6 5 27 9 46
11 19 1 39 6 44 11 6 6 28 10 50 11 32 0 37 2 21 9 -17 7 -14 9 15 11 19 1 41
2 47 2 7 -1 10 3 7 8 -3 5 8 9 25 9 16 0 33 5 36 10 3 6 17 10 30 10 13 0 27
5 30 10 3 6 15 10 26 10 10 0 19 5 19 10 0 6 14 10 30 10 17 0 30 5 30 10 0 6
12 10 28 10 21 0 24 2 12 10 -12 8 -8 10 15 11 17 1 34 1 38 0 5 -1 6 3 2 9
-3 5 3 10 14 10 11 0 23 5 26 10 4 6 10 8 15 5 5 -3 14 0 22 7 7 7 22 15 33
16 11 2 24 8 29 13 6 5 16 9 24 9 8 0 23 10 33 22 13 14 19 16 19 7 0 -10 2
-11 8 -2 4 6 14 13 22 15 8 2 23 11 34 21 18 16 38 22 59 18 5 -1 6 3 2 9 -3
5 2 10 13 10 10 0 28 9 40 20 12 11 28 20 37 20 10 0 13 5 9 12 -5 8 -2 9 9 5
10 -3 17 -2 17 4 0 6 5 7 10 4 6 -3 10 -1 10 4 0 6 6 11 13 11 7 0 23 9 35 20
12 11 28 20 37 20 9 0 13 5 10 10 -3 6 3 10 15 10 12 0 18 5 15 10 -3 6 1 10
10 10 9 0 23 7 32 15 8 8 19 12 25 9 6 -4 8 -2 5 3 -4 6 9 18 28 27 19 9 35
22 35 28 0 6 3 9 6 5 3 -3 20 8 36 24 17 16 36 29 43 29 7 0 24 14 39 32 14
17 26 26 26 19 0 -7 14 1 30 19 17 18 30 26 31 19 0 -8 4 -4 9 9 5 12 17 22
25 22 9 0 13 5 10 10 -3 6 -1 10 5 10 6 0 18 7 27 15 8 8 19 12 25 9 6 -4 9
-3 6 2 -3 5 3 17 14 27 10 9 18 15 18 12 0 -3 6 0 14 7 8 7 12 16 9 21 -2 4 1
7 7 7 7 0 24 13 40 30 15 16 30 26 34 23 3 -3 6 1 6 10 0 9 6 16 13 14 6 -1
11 4 10 11 -2 6 4 12 12 12 8 0 19 9 25 20 6 11 18 20 26 20 8 0 12 5 9 10 -3
6 1 10 10 10 9 0 14 4 11 8 -2 4 -1 14 5 22 6 11 9 11 9 2 0 -10 3 -10 14 0 8
7 12 16 9 21 -2 4 3 7 11 7 9 0 15 6 13 13 -1 6 3 11 8 10 10 -1 33 20 38 34
1 5 5 7 9 6 5 -2 7 3 5 10 -1 6 4 11 11 9 8 -1 11 2 7 8 -3 5 -1 10 5 10 6 0
9 3 7 8 -6 9 19 33 27 25 3 -4 6 1 6 11 0 9 5 14 10 11 6 -3 10 1 10 9 0 9 7
16 16 16 8 0 12 5 9 10 -3 6 -1 10 5 10 6 0 8 5 5 10 -3 6 -1 10 5 10 14 0 41
26 39 37 -1 4 9 14 22 20 13 7 18 13 11 13 -7 0 6 18 28 39 23 22 42 43 43 48
1 4 5 7 9 6 5 -2 7 0 7 5 -3 19 2 33 11 27 6 -3 10 1 10 9 0 9 5 16 10 16 6 0
10 7 10 16 0 8 5 12 10 9 6 -3 10 1 10 10 0 9 5 13 10 10 6 -4 10 -3 9 2 -3
20 2 34 11 28 6 -3 10 -1 10 5 0 6 7 18 15 27 8 8 13 19 9 24 -3 5 0 8 7 7 7
-2 18 7 24 19 7 13 15 20 18 16 4 -3 7 -1 7 6 0 6 12 23 26 38 24 24 26 24 39
7 8 -11 15 -25 15 -32 0 -7 5 -10 10 -7 6 3 10 0 10 -7 0 -8 9 -20 20 -28 11
-8 20 -20 20 -28 0 -7 5 -10 12 -6 6 4 8 3 4 -4 -3 -6 1 -17 9 -25 8 -9 15
-21 15 -27 0 -6 5 -8 10 -5 9 6 14 -8 11 -28 -1 -5 3 -6 9 -2 5 3 10 2 10 -2
0 -5 16 -26 35 -47 19 -21 32 -43 28 -49 -3 -6 -1 -7 5 -3 7 4 12 2 12 -4 0
-7 14 -25 30 -40 17 -15 30 -34 30 -41 0 -7 3 -10 6 -6 8 8 25 -10 43 -45 8
-15 18 -25 23 -22 4 3 8 -1 8 -8 0 -8 9 -20 20 -28 11 -8 20 -21 20 -29 0 -8
2 -12 5 -9 3 3 25 -13 49 -36 27 -26 39 -44 32 -48 -6 -4 -1 -8 12 -8 13 0 20
-4 17 -10 -3 -5 -1 -10 5 -10 6 0 8 -5 5 -10 -4 -6 -2 -9 3 -8 6 2 31 -19 56
-47 25 -27 46 -46 46 -42 0 3 30 -24 68 -61 37 -37 84 -79 104 -93 21 -14 35
-28 32 -31 -3 -3 8 -12 25 -19 16 -7 27 -17 25 -21 -5 -8 11 -12 29 -9 5 1 6
-3 2 -9 -3 -5 2 -10 12 -10 15 0 16 -2 3 -10 -12 -8 -11 -10 8 -10 12 0 22 -4
22 -10 0 -5 7 -10 16 -10 8 0 13 -4 10 -8 -3 -5 7 -15 22 -23 15 -8 35 -22 45
-33 9 -10 17 -16 17 -12 0 4 6 2 13 -4 48 -41 61 -49 69 -44 4 3 7 2 6 -3 -2
-4 1 -9 5 -10 4 -1 15 -9 23 -18 9 -8 20 -12 26 -9 7 4 8 2 4 -4 -4 -7 -1 -12
9 -12 9 0 13 -4 10 -10 -5 -9 16 -15 38 -11 5 1 6 -3 2 -9 -3 -5 1 -10 10 -10
9 0 13 -4 10 -10 -3 -5 3 -10 15 -10 12 0 18 -4 15 -10 -4 -6 -3 -10 2 -9 22
4 43 -2 38 -11 -3 -5 3 -10 15 -10 12 0 18 -4 15 -10 -5 -9 16 -15 38 -11 5 1
6 -3 2 -9 -3 -5 1 -10 9 -10 9 0 16 -4 16 -10 0 -5 9 -10 19 -10 11 0 21 -4
23 -9 2 -5 10 -11 18 -13 8 -2 23 -11 34 -20 11 -10 25 -18 32 -18 21 0 64
-27 56 -35 -4 -5 -2 -5 4 -2 6 4 20 0 30 -8 10 -8 29 -15 42 -15 12 0 22 -4
22 -10 0 -5 9 -10 20 -10 11 0 20 -4 20 -10 0 -5 9 -10 21 -10 11 0 18 -4 15
-8 -2 -4 5 -9 16 -9 12 -1 24 -6 27 -11 3 -6 17 -12 31 -13 14 -2 27 -6 30 -9
14 -14 52 -30 70 -30 14 0 19 -4 14 -12 -4 -6 -3 -8 3 -5 5 3 22 -1 37 -9 16
-7 39 -14 51 -14 13 0 25 -5 27 -10 2 -6 17 -11 35 -13 17 -1 29 -5 26 -9 -2
-5 9 -8 26 -8 16 0 31 -4 33 -10 2 -5 19 -11 40 -12 20 -2 34 -6 31 -10 -2 -5
10 -8 27 -8 22 0 29 -4 24 -12 -5 -8 0 -7 11 2 11 9 16 10 11 3 -5 -9 0 -13
13 -13 32 0 35 -1 50 -13 12 -10 13 -9 6 3 -6 12 -5 13 6 3 7 -7 24 -13 37
-13 16 0 21 -4 16 -12 -5 -8 0 -7 11 2 11 9 16 10 11 3 -5 -10 4 -13 34 -13
23 0 39 -4 36 -8 -3 -5 0 -9 7 -9 7 -1 31 -2 54 -4 23 -1 40 -5 38 -9 -3 -4 3
-7 13 -7 68 0 93 -4 86 -14 -4 -7 1 -7 16 1 15 8 20 8 16 1 -5 -7 11 -11 51
-12 32 -1 62 -1 66 0 5 1 6 -2 3 -7 -3 -5 14 -10 37 -11 52 -2 69 -5 82 -13 6
-4 17 -3 25 2 8 5 19 5 26 0 6 -6 51 -10 100 -11 49 -1 93 -4 99 -7 5 -4 23
-7 40 -8 20 -2 25 0 15 6 -11 7 -10 9 7 7 12 0 19 -5 17 -9 -3 -4 9 -8 26 -8
21 0 29 4 24 12 -5 7 -3 8 7 2 24 -15 62 -17 53 -2 -5 10 -4 11 7 1 17 -17
103 -18 93 -1 -5 7 -3 8 7 2 24 -15 62 -17 53 -2 -5 10 -4 11 7 1 17 -17 63
-17 53 -1 -5 7 -3 8 7 2 8 -5 25 -10 37 -12 17 -2 22 1 16 10 -6 10 -4 10 7 2
12 -9 33 -11 42 -4 8 6 36 7 32 1 -6 -10 51 -8 61 2 12 12 26 8 18 -5 -6 -10
-4 -10 7 -2 8 6 41 12 74 13 33 1 63 8 67 14 6 9 8 8 8 -3 0 -11 3 -11 12 -2
7 7 17 12 22 12 6 0 5 -4 -3 -9 -9 -6 -5 -8 14 -8 19 0 23 2 14 8 -12 7 71 15
104 10 4 0 7 3 7 8 0 5 -21 12 -47 15 -130 17 -167 23 -154 24 8 1 12 5 9 8
-4 3 -16 0 -28 -6 -15 -8 -20 -8 -16 -1 5 7 -9 11 -44 11 -35 0 -49 3 -44 11
5 8 2 9 -11 1 -10 -5 -26 -6 -34 -2 -30 14 -81 28 -77 21 3 -4 -1 -8 -9 -8 -8
0 -12 4 -9 9 3 4 -15 8 -39 8 -24 0 -47 3 -51 8 -9 8 -14 9 -57 11 -16 0 -28
5 -25 9 4 7 -29 13 -74 14 -8 1 -21 6 -29 12 -12 9 -13 8 -6 -4 6 -12 5 -13
-6 -2 -7 6 -26 12 -42 12 -20 0 -26 4 -21 13 5 7 0 6 -11 -3 -11 -9 -16 -10
-11 -2 5 8 -1 12 -23 12 -16 0 -33 5 -36 10 -5 8 -12 7 -23 -2 -12 -10 -14
-10 -8 0 5 8 0 12 -13 12 -12 0 -23 -1 -24 -2 -2 -2 -12 4 -22 12 -17 13 -18
13 -10 0 7 -13 6 -13 -7 -2 -9 7 -27 14 -40 16 -13 1 -30 5 -38 8 -8 3 -24 10
-35 14 -11 4 -33 9 -49 11 -17 2 -33 8 -37 14 -3 6 -9 10 -13 10 -32 -5 -56 1
-50 11 5 7 0 9 -14 6 -11 -3 -29 0 -40 8 -11 7 -33 15 -50 16 -17 1 -28 6 -26
10 3 4 -11 8 -31 8 -22 0 -34 4 -30 10 3 6 -3 10 -15 10 -11 0 -30 5 -43 12
-48 24 -57 28 -77 28 -11 0 -20 5 -20 10 0 6 -8 10 -19 10 -10 0 -31 7 -47 14
-15 8 -31 13 -36 10 -4 -3 -8 0 -8 5 0 6 -9 11 -21 11 -13 0 -18 4 -13 12 4 6
3 8 -2 5 -9 -5 -49 9 -96 34 -10 5 -25 9 -33 9 -8 0 -15 5 -15 10 0 6 -3 9 -7
9 -21 -3 -33 2 -28 12 4 6 1 9 -7 7 -15 -3 -111 42 -116 55 -2 4 -15 7 -28 7
-14 0 -22 4 -19 10 3 6 -3 10 -15 10 -12 0 -18 5 -15 10 4 6 -5 10 -20 10 -15
0 -24 4 -20 10 3 6 0 10 -8 10 -20 0 -97 41 -97 52 0 4 -7 8 -15 8 -9 0 -25 9
-37 20 -12 11 -30 20 -40 20 -11 0 -17 4 -14 8 3 5 -10 15 -29 22 -19 7 -32
17 -29 22 3 4 -2 8 -11 8 -9 0 -23 7 -32 15 -8 8 -19 12 -25 9 -7 -4 -8 -2 -4
4 4 7 1 12 -9 12 -9 0 -13 5 -10 10 5 9 -16 15 -38 11 -5 -1 -6 3 -2 9 3 5 -1
10 -10 10 -9 0 -13 5 -10 10 3 6 -3 10 -15 10 -12 0 -19 4 -16 8 3 5 -7 15
-22 23 -15 8 -36 22 -46 32 -11 9 -26 17 -33 17 -7 0 -12 3 -10 8 1 4 -3 9 -8
11 -6 3 -23 17 -40 33 -16 15 -34 28 -38 28 -5 0 -26 18 -47 40 -21 22 -44 40
-50 40 -6 0 -8 5 -4 12 4 6 3 8 -4 4 -6 -4 -56 39 -116 98 -59 58 -106 100
-106 93 0 -7 -7 2 -15 18 -8 17 -29 39 -45 50 -16 11 -30 26 -30 34 0 8 -2 12
-5 9 -5 -5 -75 59 -75 69 0 2 -18 22 -40 43 -21 20 -36 40 -33 44 4 3 1 6 -6
6 -16 0 -32 17 -50 52 -8 15 -18 25 -23 22 -4 -3 -8 0 -8 6 0 7 -14 25 -31 41
-17 16 -25 29 -18 29 11 0 11 2 -1 9 -8 6 -18 7 -24 4 -5 -3 -6 -1 -2 5 3 6
-9 27 -29 46 -19 19 -35 40 -35 46 0 6 -5 8 -12 4 -6 -4 -8 -3 -4 4 3 6 1 16
-6 24 -32 34 -78 98 -78 108 0 6 -4 8 -10 5 -5 -3 -10 0 -10 7 0 7 -14 28 -30
45 -17 18 -32 36 -33 40 -1 5 -6 7 -10 5 -5 -1 -6 2 -3 7 4 5 -5 21 -19 35
-14 14 -24 27 -23 30 2 2 -9 18 -24 36 -15 18 -25 38 -21 43 3 6 1 7 -5 3 -7
-4 -12 -1 -12 9 0 9 -4 13 -10 10 -5 -3 -10 1 -10 9 0 9 -4 16 -8 16 -4 0 -8
9 -9 20 -1 11 3 20 8 20 6 0 8 4 5 9 -3 5 1 11 9 15 8 3 15 12 15 21 0 8 5 15
10 15 6 0 10 7 10 15 0 7 8 19 18 24 9 6 14 11 9 11 -4 0 6 14 23 31 16 18 30
36 30 41 0 5 7 16 15 25 8 8 13 19 9 24 -3 5 -2 8 3 7 4 -2 9 0 10 5 2 4 12
17 23 29 11 12 20 28 20 35 0 8 4 12 9 9 4 -3 19 15 31 39 13 25 27 45 32 45
4 0 8 7 8 16 0 8 5 12 10 9 6 -3 10 1 10 10 0 10 5 13 12 9 6 -4 8 -3 4 4 -3
6 1 17 9 25 8 9 15 21 15 27 0 6 5 8 10 5 6 -3 10 1 10 9 0 8 8 20 18 25 9 6
13 11 8 11 -5 0 6 15 25 32 19 18 34 35 34 38 0 3 4 4 8 2 5 -1 6 2 2 8 -3 5
-1 10 5 10 6 0 9 4 6 8 -3 5 4 14 14 22 10 8 17 17 14 22 -3 4 2 8 10 8 9 0
16 7 16 16 0 8 5 12 10 9 6 -3 10 3 10 15 0 12 5 18 10 15 6 -3 10 1 10 10 0
9 5 13 10 10 6 -3 10 -1 10 5 0 7 14 25 30 40 16 15 30 33 30 40 0 6 3 9 8 7
4 -2 17 6 30 19 14 15 18 24 10 24 -9 0 -9 3 2 9 8 6 17 8 20 6 5 -3 37 27 33
32 -2 2 -2 2 0 1 4 -5 35 26 34 34 -1 3 0 5 3 5 3 -1 13 5 22 13 11 11 12 17
4 22 -6 5 -2 8 11 8 13 0 22 5 20 13 -1 6 4 11 11 10 6 -2 12 5 12 14 0 9 3
14 6 11 3 -4 29 16 57 43 28 27 55 49 60 49 4 0 5 5 2 10 -3 6 3 10 14 10 12
0 20 4 18 9 -1 5 2 9 6 9 5 1 17 10 26 21 10 12 24 21 30 21 7 0 10 4 7 8 -3
5 7 15 22 23 15 8 35 22 45 33 9 10 17 15 17 10 0 -5 5 -1 11 9 5 9 17 17 24
17 8 0 15 5 15 10 0 6 7 10 16 10 8 0 12 5 9 10 -3 6 1 10 10 10 9 0 25 9 37
20 12 11 28 20 35 20 7 0 13 5 13 10 0 6 7 10 16 10 8 0 12 5 9 10 -3 6 3 10
15 10 12 0 18 5 15 10 -3 6 2 10 12 10 23 1 55 25 45 35 -4 5 1 5 11 2 10 -4
17 -2 17 5 0 6 3 8 6 5 4 -4 14 1 23 11 9 9 22 18 30 20 7 1 29 14 49 27 19
13 40 21 45 18 6 -3 7 -1 3 5 -6 11 13 17 37 13 5 -1 6 3 2 9 -5 9 15 15 38
11 5 -1 6 3 2 9 -3 5 2 10 13 10 10 0 28 9 40 20 12 11 32 21 46 22 13 1 22 6
20 10 -5 7 19 12 39 9 5 -1 6 3 2 9 -5 9 15 15 38 11 4 0 7 4 7 9 0 6 9 10 21
10 11 0 17 5 14 10 -4 6 5 10 19 10 14 0 26 4 26 8 0 4 12 9 27 10 15 1 29 5
32 10 11 13 54 34 46 22 -4 -7 1 -7 14 2 12 7 21 17 21 23 0 5 5 3 10 -5 6
-10 10 -11 10 -2 0 6 12 12 26 12 14 0 23 4 19 10 -6 9 22 15 54 11 7 -2 10 2
6 8 -4 7 5 11 24 11 17 0 31 5 31 10 0 6 8 10 18 10 10 0 24 6 31 13 11 10 13
9 7 -1 -4 -7 8 -4 28 8 20 11 40 19 44 19 4 -1 18 -1 32 0 20 1 22 3 10 11
-12 8 -9 10 13 10 15 0 39 0 55 0 21 0 24 2 12 10 -11 7 -7 10 18 10 17 0 32
5 32 10 0 6 5 10 11 10 5 0 7 -5 4 -10 -4 -6 10 -1 30 10 21 12 40 19 43 15 3
-3 -1 -5 -8 -5 -7 0 -10 -3 -7 -6 4 -4 13 -1 21 6 9 6 31 12 51 13 21 1 30 4
22 9 -7 5 0 8 19 8 16 0 34 4 40 9 5 6 28 11 52 12 23 2 42 6 42 9 0 3 17 7
37 8 21 2 40 7 43 12 3 5 23 10 44 12 20 1 40 6 42 10 3 4 27 8 53 8 26 0 51
3 55 7 3 4 15 8 26 10 11 2 28 4 38 6 9 1 23 6 30 11 7 4 20 2 29 -6 12 -9 15
-9 9 0 -5 8 2 12 26 13 32 1 48 3 58 8 10 5 46 10 87 13 22 2 39 6 36 11 -2 4
21 7 52 7 42 0 54 3 49 13 -6 9 -5 9 7 0 10 -8 19 -9 25 -3 5 5 32 11 61 12
28 2 49 6 47 9 -2 3 22 7 54 8 70 2 90 5 97 14 3 4 2 5 -1 2 -4 -2 -16 1 -28
7 -29 17 -47 19 -39 5 5 -9 3 -9 -8 -1 -8 5 -48 12 -89 13 -41 2 -77 7 -78 12
-2 5 -9 6 -15 2 -18 -11 -38 -13 -32 -3 3 5 -9 9 -27 8 -94 -2 -167 5 -161 16
3 6 0 5 -8 -1 -7 -7 -19 -13 -27 -13 -8 0 -10 5 -6 13 6 9 5 9 -8 0 -8 -7 -18
-10 -22 -5 -9 8 -396 10 -391 2 2 -4 -12 -7 -31 -7 -23 -1 -32 3 -27 10 5 8 2
8 -8 0 -9 -7 -50 -13 -97 -14 -57 -1 -80 -5 -75 -13 3 -6 0 -6 -8 2 -15 14
-33 17 -25 4 3 -5 -1 -9 -9 -9 -8 0 -12 5 -8 10 3 5 -4 4 -15 -2 -11 -6 -48
-11 -82 -11 -34 0 -59 -4 -56 -8 3 -5 -1 -9 -9 -9 -8 0 -12 3 -10 7 2 4 -2 7
-10 7 -8 0 -12 -4 -10 -8 3 -4 -18 -7 -46 -7 -29 -1 -57 -6 -62 -11 -6 -6 -16
-11 -21 -11 -6 0 -4 5 4 10 12 7 10 9 -7 7 -12 0 -19 -5 -17 -9 3 -4 -13 -8
-36 -8 -30 0 -39 -3 -34 -12 6 -10 4 -10 -7 0 -7 6 -18 12 -23 12 -6 0 -4 -5
4 -10 11 -7 6 -10 -22 -11 -51 -2 -55 -3 -64 -11 -4 -5 -24 -8 -45 -8 -21 0
-41 -4 -44 -10 -3 -5 -24 -10 -46 -10 -21 0 -39 -4 -39 -10 0 -5 -18 -10 -40
-10 -22 0 -40 -4 -40 -10 0 -5 -3 -9 -7 -9 -26 4 -63 -2 -59 -10 3 -5 0 -9 -7
-8 -6 0 -28 -1 -47 -2 -27 -1 -31 -4 -20 -11 11 -7 5 -10 -22 -10 -21 0 -38
-4 -38 -8 0 -4 -12 -9 -27 -10 -15 -1 -29 -5 -32 -10 -3 -4 -17 -9 -31 -10
-14 -2 -29 -8 -35 -13 -5 -5 -17 -9 -28 -9 -10 0 -25 -7 -33 -15 -8 -8 -22
-11 -31 -8 -11 4 -14 3 -9 -5 6 -11 -20 -18 -47 -13 -5 1 -6 -3 -2 -9 5 -9
-23 -15 -48 -11 -5 1 -6 -3 -2 -9 3 -5 -3 -10 -14 -10 -12 0 -21 -6 -21 -12 0
-9 -4 -8 -10 2 -6 10 -10 11 -10 3 0 -7 -7 -13 -16 -13 -8 0 -13 -4 -10 -8 3
-5 -1 -9 -9 -10 -8 -1 -22 -3 -30 -4 -8 -1 -15 -5 -15 -10 0 -4 -9 -8 -21 -8
-11 0 -17 -4 -14 -10 5 -9 -15 -15 -37 -11 -5 0 -8 -4 -8 -9 0 -6 -9 -10 -19
-10 -11 0 -21 -4 -23 -9 -2 -5 -10 -11 -18 -13 -8 -2 -21 -9 -28 -16 -8 -7
-18 -9 -24 -6 -7 4 -8 2 -4 -4 4 -7 1 -12 -8 -12 -9 0 -16 -4 -16 -10 0 -5 -7
-10 -15 -10 -18 0 -51 -18 -79 -42 -11 -10 -28 -18 -38 -18 -11 0 -17 -4 -14
-9 4 -5 -7 -15 -24 -23 -16 -7 -30 -16 -30 -20 0 -5 -9 -8 -21 -8 -11 0 -17
-4 -14 -10 3 -5 -3 -10 -15 -10 -12 0 -18 -4 -15 -10 3 -5 0 -10 -7 -10 -7 0
-26 -11 -42 -25 -16 -13 -33 -22 -39 -18 -6 3 -7 1 -3 -5 4 -7 1 -12 -8 -12
-9 0 -16 -4 -16 -10 0 -5 -7 -10 -16 -10 -8 0 -13 -4 -10 -8 3 -5 -7 -15 -22
-23 -15 -8 -36 -22 -46 -31 -11 -10 -27 -18 -35 -18 -14 0 -14 -1 -1 -10 14
-9 9 -12 -16 -10 -3 1 -18 -13 -34 -30 -15 -16 -33 -30 -40 -30 -6 0 -8 -4 -5
-10 3 -5 -1 -10 -10 -10 -9 0 -13 -4 -10 -10 3 -5 -3 -10 -14 -10 -15 0 -21
-7 -22 -22 0 -13 -3 -18 -6 -11 -3 10 -7 10 -18 0 -7 -7 -11 -15 -8 -19 2 -5
-3 -8 -12 -8 -9 0 -13 -4 -10 -10 3 -5 1 -10 -5 -10 -11 0 -67 -51 -62 -57 1
-2 0 -3 -3 -3 -11 0 -115 -110 -115 -121 0 -7 -3 -10 -6 -6 -8 8 -33 -16 -27
-25 2 -5 -1 -8 -7 -8 -6 0 -18 -7 -26 -15 -12 -12 -12 -15 -2 -15 10 0 10 -3
-2 -9 -8 -6 -18 -7 -22 -5 -5 3 -8 2 -7 -3 3 -20 -2 -34 -11 -28 -5 3 -10 1
-10 -5 0 -7 -14 -25 -30 -40 -17 -15 -30 -33 -30 -40 0 -6 -4 -8 -10 -5 -5 3
-10 -3 -10 -15 0 -12 -4 -18 -10 -15 -5 3 -10 -1 -10 -10 0 -9 -4 -13 -10 -10
-5 3 -10 -1 -10 -9 0 -9 -4 -16 -10 -16 -5 0 -10 -7 -10 -16 0 -8 -4 -12 -10
-9 -9 6 -14 -8 -11 -27 0 -5 -5 -7 -12 -5 -6 1 -11 -4 -10 -10 2 -7 -2 -13 -7
-13 -6 0 -10 -7 -10 -16 0 -8 -4 -12 -10 -9 -5 3 -10 -1 -10 -10 0 -10 -5 -13
-12 -9 -6 4 -8 3 -4 -4 3 -6 -4 -21 -16 -34 -13 -13 -29 -35 -37 -50 -8 -15
-17 -26 -20 -23 -4 2 -13 -10 -20 -26 -7 -16 -17 -26 -23 -23 -6 4 -8 2 -4 -4
3 -6 -1 -17 -9 -25 -8 -9 -15 -21 -15 -27 0 -6 -4 -8 -10 -5 -9 6 -14 -8 -11
-27 2 -13 -7 -9 -33 15 -14 13 -23 27 -19 30 3 4 -2 9 -11 13 -9 3 -16 11 -16
16 0 17 -47 67 -55 60 -5 -4 -5 -2 -1 5 3 6 -5 23 -19 37 -14 14 -25 30 -25
36 0 6 -5 8 -12 4 -6 -4 -8 -3 -4 4 3 6 0 16 -7 24 -7 7 -25 30 -38 50 -14 21
-29 35 -32 31 -4 -3 -7 -1 -7 6 0 6 -11 24 -24 38 -14 15 -22 31 -19 36 3 6 1
7 -5 3 -7 -4 -12 -2 -12 4 0 7 -14 25 -31 41 -17 16 -29 29 -25 29 3 0 -14 20
-37 45 -23 24 -53 57 -67 74 -14 16 -28 27 -32 24 -5 -2 -8 5 -8 17 0 12 -3
19 -7 17 -10 -5 -93 79 -86 87 4 3 1 6 -4 6 -15 0 -83 67 -76 74 4 3 1 6 -5 6
-7 0 -39 27 -73 60 -33 33 -65 60 -71 60 -5 0 -27 18 -48 40 -21 22 -44 40
-50 40 -6 0 -8 5 -5 10 4 6 3 10 -2 9 -20 -3 -34 2 -28 11 3 6 0 10 -8 10 -8
0 -22 9 -32 20 -10 11 -24 20 -32 20 -8 0 -11 5 -8 10 3 6 -1 10 -9 10 -9 0
-16 5 -16 10 0 6 -7 10 -16 10 -9 0 -12 5 -8 12 4 6 3 8 -3 5 -6 -4 -21 2 -33
13 -12 11 -27 17 -33 13 -6 -3 -7 -1 -3 5 4 7 1 12 -9 12 -9 0 -13 5 -10 10 3
6 -3 10 -15 10 -13 0 -19 4 -14 12 4 6 3 8 -3 5 -12 -8 -65 27 -56 37 5 4 3 7
-2 6 -23 -5 -46 1 -40 10 3 6 -3 10 -15 10 -12 0 -18 5 -15 10 4 6 -5 10 -21
10 -15 0 -24 3 -21 6 4 4 -12 17 -36 29 -23 11 -53 28 -67 35 -14 8 -27 15
-30 15 -21 5 -59 26 -65 35 -3 5 -11 8 -16 5 -5 -4 -9 -1 -9 4 0 6 -9 11 -21
11 -11 0 -17 5 -14 10 4 6 -5 10 -19 10 -14 0 -26 5 -26 10 0 6 -12 10 -26 10
-16 0 -23 4 -18 12 4 6 3 8 -3 5 -6 -4 -19 0 -29 8 -10 8 -27 15 -37 15 -11 0
-33 10 -50 22 -17 12 -27 16 -23 9 8 -13 5 -12 -51 17 -13 7 -32 12 -43 12
-11 0 -20 5 -20 10 0 6 -12 10 -26 10 -14 0 -23 4 -20 8 2 4 -7 9 -22 10 -14
1 -31 7 -36 12 -6 6 -20 10 -32 10 -13 0 -25 4 -28 8 -3 5 -20 9 -37 10 -18 0
-35 6 -39 12 -4 6 -21 12 -38 12 -17 1 -29 4 -27 8 3 4 -3 7 -13 7 -51 0 -63
3 -56 16 5 7 0 6 -11 -3 -11 -9 -16 -10 -11 -2 5 8 -1 12 -18 13 -38 2 -44 3
-52 12 -4 4 -24 7 -44 7 -20 0 -40 4 -45 9 -6 5 -26 11 -45 12 -19 2 -41 8
-49 13 -11 8 -13 8 -8 0 3 -6 0 -11 -8 -11 -8 0 -12 4 -9 9 3 4 -11 9 -30 9
-48 2 -53 3 -62 12 -4 4 -36 7 -70 7 -35 0 -66 5 -69 10 -5 8 -12 7 -23 -2
-12 -10 -14 -10 -8 0 5 9 -9 12 -59 12 -37 0 -75 5 -85 10 -13 7 -21 7 -25 0
-5 -8 -11 -8 -20 0 -7 6 -61 11 -129 11 -64 1 -119 5 -122 11 -3 5 -12 4 -22
-4 -12 -10 -14 -10 -8 0 8 13 -6 17 -18 5 -9 -9 -37 -13 -32 -5 2 4 -69 7
-159 7 -90 0 -161 -3 -159 -7 3 -5 -7 -8 -21 -8 -15 0 -24 4 -20 10 8 13 2 13
-11 0z m8111 -50 c3 -5 1 -10 -4 -10 -6 0 -11 5 -11 10 0 6 2 10 4 10 3 0 8
-4 11 -10z"/>
<path d="M14118 14983 c7 -3 16 -2 19 1 4 3 -2 6 -13 5 -11 0 -14 -3 -6 -6z"/>
<path d="M13228 13974 c-7 -6 -60 -16 -100 -17 -14 -1 -25 -4 -23 -8 3 -3 -12
-6 -32 -7 -19 -1 -42 -7 -51 -14 -13 -11 -14 -11 -7 2 6 12 5 13 -6 3 -7 -7
-26 -13 -41 -13 -15 0 -28 -5 -28 -12 0 -6 -3 -8 -6 -5 -4 3 -16 1 -28 -6 -19
-10 -33 -14 -73 -19 -7 -1 -10 -5 -7 -10 5 -7 -18 -12 -38 -9 -5 0 -8 -3 -8
-9 0 -5 -9 -10 -21 -10 -11 0 -17 -4 -14 -10 5 -9 -2 -11 -30 -10 -3 0 -15 -9
-27 -20 -20 -18 -39 -25 -61 -21 -5 1 -6 -2 -3 -7 3 -5 -6 -15 -19 -22 -14 -7
-25 -17 -25 -22 0 -4 -7 -8 -15 -8 -7 0 -19 -8 -24 -17 -6 -10 -11 -15 -11
-12 0 4 -29 -21 -64 -55 -35 -33 -63 -65 -62 -71 1 -5 -5 -9 -11 -8 -7 2 -12
0 -12 -5 3 -18 -2 -33 -9 -28 -5 3 -15 -10 -22 -29 -7 -19 -17 -32 -22 -29 -4
3 -8 -4 -8 -16 0 -12 -4 -18 -10 -15 -6 4 -10 -5 -10 -20 0 -15 -4 -24 -10
-20 -6 4 -10 -5 -10 -20 0 -15 -4 -24 -10 -20 -5 3 -10 -3 -10 -14 0 -12 -4
-21 -10 -21 -5 0 -10 -11 -10 -24 0 -14 -4 -28 -10 -31 -5 -3 -10 -19 -10 -36
0 -16 -4 -29 -10 -29 -5 0 -10 -5 -10 -11 0 -5 5 -7 11 -4 7 5 7 1 0 -14 -6
-12 -16 -30 -22 -42 -7 -15 -7 -19 0 -14 6 3 11 1 11 -4 0 -6 -4 -11 -8 -11
-4 0 -8 -10 -9 -22 -1 -13 -2 -47 -3 -76 -2 -30 -6 -49 -9 -43 -4 6 -7 -33 -6
-87 0 -53 3 -101 7 -107 3 -5 6 -39 7 -74 0 -36 4 -67 9 -70 4 -3 9 -24 11
-46 1 -22 7 -44 11 -50 4 -5 10 -21 12 -35 1 -14 6 -28 10 -31 5 -3 9 -17 10
-31 1 -15 6 -24 10 -22 4 3 8 -6 8 -20 0 -13 3 -26 8 -28 10 -4 58 -100 54
-111 -1 -5 2 -6 8 -2 5 3 10 0 10 -7 0 -8 9 -20 19 -28 11 -7 18 -17 16 -20
-3 -4 16 -28 40 -54 25 -25 45 -51 45 -57 0 -5 4 -8 8 -5 5 3 15 -4 22 -15 8
-10 20 -19 28 -19 7 0 10 -4 7 -10 -3 -5 1 -10 10 -10 9 0 13 -4 10 -10 -3 -5
0 -10 8 -10 7 0 23 -9 35 -20 12 -11 26 -20 32 -20 6 0 8 -5 4 -12 -4 -6 -3
-8 4 -4 6 3 17 -1 25 -9 9 -8 23 -15 32 -15 9 0 13 -4 10 -10 -4 -6 5 -10 20
-10 15 0 24 -4 20 -10 -4 -6 5 -10 20 -10 14 0 24 -4 21 -8 -2 -4 5 -9 17 -9
12 -1 23 -7 25 -13 2 -5 15 -10 28 -10 14 0 23 -4 20 -8 -2 -4 5 -8 17 -9 28
0 51 -6 57 -15 3 -4 17 -8 30 -10 14 -2 31 -7 39 -12 10 -7 12 -5 6 5 -6 11
-5 12 6 2 7 -7 26 -13 42 -13 15 0 26 -4 23 -8 -2 -4 5 -9 17 -9 17 -2 19 0 7
7 -8 5 -10 10 -5 10 6 0 16 -5 22 -11 5 -5 29 -10 51 -11 23 0 40 -4 37 -8 -2
-3 2 -7 10 -7 8 0 12 3 10 7 -2 4 2 7 10 7 8 0 12 -4 9 -9 -8 -12 386 -9 409
4 11 5 17 6 14 1 -4 -5 0 -10 8 -10 8 0 12 4 9 9 -5 7 48 13 89 8 10 -1 24 4
32 10 7 6 29 12 48 13 19 1 33 5 31 8 -2 3 11 6 28 7 17 0 34 6 38 12 4 7 10
11 14 11 3 -1 16 -1 29 -1 17 0 19 2 7 10 -10 6 -5 9 18 8 18 -1 38 4 44 10 7
7 18 12 26 12 7 0 20 7 29 15 8 8 19 13 24 10 5 -4 9 -1 9 4 0 6 9 11 21 11
11 0 17 5 14 10 -5 9 16 15 38 11 5 -1 6 3 2 9 -3 5 1 10 9 10 9 0 16 4 16 9
0 5 15 16 33 24 17 9 40 25 50 37 10 11 23 18 29 14 7 -4 8 -3 4 4 -4 7 -1 12
9 12 9 0 13 5 10 10 -3 6 -1 10 5 10 15 0 60 46 53 54 -4 3 -1 6 6 6 6 0 22
10 34 23 23 22 27 29 27 47 0 6 7 10 16 10 8 0 12 5 9 10 -3 6 -1 10 4 10 6 0
10 6 9 13 -2 6 2 11 7 10 6 -1 12 7 12 18 1 13 -5 19 -18 19 -10 0 -19 5 -19
10 0 6 -9 10 -21 10 -11 0 -17 5 -14 10 4 6 -5 10 -20 10 -15 0 -24 4 -20 10
4 6 3 10 -2 9 -4 -1 -11 0 -15 1 -5 1 -11 3 -15 5 -22 6 -50 19 -63 31 -8 7
-18 13 -22 14 -36 8 -47 14 -42 21 3 5 -7 9 -21 9 -15 0 -24 4 -20 10 3 6 3
10 -2 10 -10 -1 -49 -30 -40 -30 4 0 -1 -9 -10 -19 -53 -57 -73 -83 -73 -93 0
-6 -3 -9 -6 -5 -8 7 -34 -17 -34 -32 0 -6 -7 -7 -17 -4 -9 4 -14 2 -11 -3 3
-5 0 -15 -8 -22 -8 -7 -14 -9 -14 -5 0 4 -5 0 -11 -9 -5 -10 -15 -18 -22 -18
-7 0 -23 -9 -37 -20 -14 -11 -32 -20 -42 -20 -9 0 -18 -4 -20 -10 -1 -5 -15
-11 -30 -12 -15 -1 -24 -6 -22 -10 3 -4 -4 -8 -15 -8 -11 0 -23 -4 -26 -10 -3
-5 -27 -10 -53 -10 -33 0 -43 -3 -32 -10 10 -6 3 -9 -25 -9 -48 0 -65 -4 -84
-15 -9 -6 -12 -5 -8 1 3 5 0 10 -8 10 -8 0 -12 -3 -10 -7 2 -4 -16 -8 -41 -8
-34 -2 -43 1 -38 10 6 11 5 11 -8 0 -20 -16 -140 -14 -131 2 3 6 0 5 -8 -1
-14 -14 -43 -18 -35 -5 2 4 -5 9 -17 9 -17 2 -19 0 -7 -7 9 -6 10 -10 3 -10
-6 0 -15 5 -18 10 -3 6 -26 10 -50 10 -24 0 -47 5 -50 10 -4 7 -13 6 -27 -1
-15 -8 -19 -8 -14 0 5 7 -5 11 -29 11 -22 0 -34 4 -30 10 4 6 3 10 -2 9 -4 -1
-24 -1 -43 0 -27 1 -31 4 -20 11 11 7 7 10 -18 10 -20 0 -31 4 -27 10 4 6 3
10 -2 9 -24 -4 -53 2 -48 11 4 6 -5 10 -20 10 -15 0 -24 4 -20 10 5 9 -16 15
-38 11 -5 -1 -6 3 -2 9 3 5 0 10 -7 10 -8 0 -20 9 -28 19 -7 11 -17 18 -22 15
-4 -3 -8 0 -8 6 0 6 -5 8 -10 5 -6 -4 -9 -1 -8 6 2 7 -7 18 -18 23 -12 5 -29
22 -39 38 -9 15 -21 28 -26 28 -6 0 -7 5 -4 10 3 6 1 10 -4 10 -6 0 -11 7 -11
16 0 8 -4 12 -10 9 -5 -3 -10 3 -10 14 0 12 -4 21 -10 21 -5 0 -10 7 -10 16 0
9 -5 12 -12 8 -6 -4 -8 -3 -5 3 3 5 -2 26 -13 45 -10 20 -16 38 -13 42 3 3 1
12 -6 19 -6 8 -12 26 -13 40 -1 14 -5 24 -9 21 -6 -3 -7 3 -12 74 -1 17 -5 32
-9 32 -14 0 -9 165 5 179 7 9 8 11 1 7 -8 -4 -12 6 -12 31 0 24 3 32 9 22 6
-9 9 -10 9 -2 0 6 -4 15 -10 18 -5 3 -10 12 -10 18 0 7 4 6 10 -3 7 -11 10 -7
10 18 0 18 4 41 9 50 5 9 10 31 12 47 2 17 12 43 23 59 11 16 14 26 8 22 -7
-4 -3 10 9 31 12 21 26 41 31 44 5 3 9 9 9 13 -3 20 0 26 9 21 6 -3 10 1 10 9
0 9 4 16 10 16 5 0 9 6 7 13 -1 6 4 11 11 9 6 -1 11 1 11 5 -3 18 2 34 9 30 9
-5 42 30 34 37 -5 6 14 10 31 7 5 -1 6 3 2 9 -3 5 -1 10 5 10 5 0 24 14 42 30
17 17 37 30 44 30 8 0 14 5 14 11 0 5 4 8 9 4 5 -3 16 2 24 10 9 8 23 15 31
15 9 0 16 5 16 10 0 6 14 10 30 10 17 0 30 5 30 10 0 6 11 10 25 10 14 0 25 5
25 10 0 6 5 10 11 10 5 0 7 -6 3 -12 -6 -10 -5 -10 8 -1 8 7 27 14 42 15 14 1
26 6 26 10 0 4 5 8 11 8 5 0 7 -6 3 -12 -6 -10 -4 -10 8 0 9 7 35 13 57 14 22
0 39 4 36 8 -2 3 2 7 10 7 8 0 12 -4 10 -8 -3 -4 3 -6 12 -4 10 2 18 4 18 5 0
1 13 4 29 6 18 3 32 0 37 -8 7 -10 9 -10 9 0 0 16 152 17 182 1 11 -6 18 -7
15 -2 -4 5 0 10 8 10 8 0 12 -3 10 -7 -2 -4 12 -8 33 -9 20 -2 45 -3 55 -4 9
-1 17 -5 17 -9 0 -4 16 -8 36 -8 19 0 33 -4 30 -8 -2 -4 7 -9 22 -10 14 -1 31
-7 36 -12 6 -6 21 -10 34 -10 13 0 20 -4 17 -10 -5 -9 15 -15 38 -11 4 0 7 -3
7 -9 0 -5 7 -10 16 -10 9 0 12 -5 8 -12 -4 -6 -3 -8 4 -4 6 3 16 1 24 -6 7 -7
25 -19 40 -27 15 -8 25 -18 22 -23 -3 -4 0 -8 6 -8 15 0 80 -67 73 -74 -4 -3
-1 -6 5 -6 7 0 28 -22 48 -50 20 -27 40 -50 46 -50 5 0 6 5 3 10 -4 6 5 10 20
10 15 0 24 4 20 10 -5 9 15 15 38 11 4 0 7 4 7 9 0 6 9 10 21 10 11 0 17 5 14
10 -5 9 8 12 31 9 4 0 10 4 13 9 3 6 13 12 21 14 8 2 21 9 28 16 8 7 17 10 22
7 5 -3 10 -1 12 4 1 5 10 11 18 13 8 2 21 9 28 16 8 7 18 10 23 7 19 -12 8 21
-16 49 -13 16 -22 33 -18 39 3 6 1 7 -5 3 -7 -4 -12 -2 -12 4 0 6 -5 8 -10 5
-6 -4 -9 -3 -8 2 4 12 -28 54 -35 46 -4 -3 -7 -1 -7 6 0 17 -91 101 -108 101
-7 0 -10 5 -7 10 3 6 1 10 -5 10 -6 0 -18 7 -27 15 -8 8 -19 12 -25 9 -6 -4
-8 -2 -5 3 4 6 -7 16 -23 23 -16 7 -27 16 -24 21 3 5 2 8 -3 7 -12 -4 -73 25
-73 34 0 5 -12 8 -26 8 -14 0 -23 4 -19 10 5 9 -24 15 -48 11 -5 -1 -6 3 -2 9
4 6 -6 10 -25 10 -18 0 -29 4 -25 10 5 9 -23 15 -47 11 -5 0 -8 4 -8 9 0 6
-14 10 -31 10 -21 0 -28 4 -23 13 5 7 0 6 -11 -3 -11 -9 -16 -10 -11 -2 5 9
-3 12 -29 12 -20 0 -34 4 -31 8 3 5 -1 9 -9 9 -8 0 -12 -5 -8 -10 3 -5 -4 -4
-16 2 -11 7 -36 12 -56 13 -19 1 -32 5 -30 9 6 9 -15 6 -32 -4 -6 -4 -14 -3
-18 2 -3 6 -89 10 -206 10 -110 0 -198 -3 -195 -8 3 -4 -1 -8 -9 -8 -8 0 -12
4 -9 9 6 9 0 11 -8 2z"/>
<path d="M7660 13929 c12 -8 12 -10 -5 -8 -11 1 -42 1 -68 0 -36 -1 -46 -4
-41 -13 6 -10 4 -10 -8 0 -11 9 -18 10 -23 2 -3 -5 -17 -10 -30 -10 -13 0 -27
-4 -30 -10 -3 -5 -26 -10 -51 -10 -24 0 -44 -4 -44 -10 0 -5 -3 -9 -7 -9 -21
3 -44 -2 -39 -9 2 -4 -7 -9 -22 -10 -14 -1 -29 -8 -34 -15 -4 -6 -8 -8 -8 -3
0 4 -11 1 -25 -8 -14 -9 -30 -14 -35 -11 -6 3 -10 1 -10 -5 0 -6 -4 -8 -10 -5
-5 3 -10 1 -10 -4 0 -6 -9 -11 -20 -11 -11 0 -20 -4 -20 -10 0 -5 -6 -10 -12
-10 -7 0 -29 -14 -48 -30 -19 -17 -41 -28 -47 -25 -7 2 -13 0 -13 -6 0 -16
-27 -39 -45 -39 -9 0 -13 -4 -10 -10 3 -5 -1 -10 -10 -10 -9 0 -13 -4 -10 -10
3 -5 1 -10 -5 -10 -18 0 -91 -81 -84 -92 4 -7 2 -8 -4 -4 -7 4 -12 2 -12 -4 0
-6 -5 -8 -12 -4 -6 4 -8 3 -5 -3 4 -6 -5 -23 -18 -39 -14 -16 -25 -35 -25 -41
0 -7 -4 -13 -10 -13 -5 0 -10 -7 -10 -16 0 -9 -5 -12 -12 -8 -6 4 -8 3 -4 -4
3 -6 -2 -18 -11 -28 -10 -10 -17 -19 -15 -21 7 -9 0 -33 -8 -28 -9 5 -15 -24
-11 -48 1 -5 -3 -6 -9 -2 -6 4 -10 -6 -10 -24 0 -16 -4 -33 -10 -36 -5 -3 -10
-17 -10 -31 0 -18 -4 -23 -12 -18 -8 5 -7 0 2 -11 9 -11 10 -16 3 -11 -9 5
-13 -1 -13 -23 0 -16 -4 -33 -10 -36 -5 -3 -10 -12 -10 -18 0 -7 4 -6 10 3 6
9 10 10 10 3 0 -6 -4 -14 -8 -17 -4 -2 -9 -19 -10 -37 -1 -18 -8 -39 -15 -48
-7 -9 -8 -12 -1 -8 7 4 12 -2 12 -18 0 -14 -3 -23 -7 -21 -3 3 -6 -44 -6 -104
0 -59 3 -106 7 -104 3 2 6 -16 6 -41 0 -25 6 -53 14 -62 9 -12 9 -15 1 -9 -7
4 -13 2 -13 -3 0 -6 4 -11 8 -11 9 0 10 -8 13 -65 0 -19 5 -32 10 -29 5 3 9
-11 9 -30 0 -20 5 -36 10 -36 6 0 10 -11 10 -24 0 -14 5 -28 10 -31 6 -3 10
-15 10 -26 0 -10 5 -19 10 -19 6 0 10 -9 10 -20 0 -11 5 -20 10 -20 6 0 10 -7
10 -16 0 -9 5 -12 12 -8 6 4 9 3 6 -2 -7 -12 27 -76 36 -67 3 3 6 -4 6 -16 0
-12 4 -19 10 -16 6 3 10 1 10 -5 0 -17 46 -70 54 -63 3 4 6 1 6 -6 0 -15 66
-81 74 -74 3 4 6 -1 6 -10 0 -9 6 -17 13 -17 6 0 25 -11 41 -25 16 -13 33 -22
38 -19 4 3 7 2 6 -3 -2 -4 0 -9 5 -10 4 -2 17 -12 29 -23 12 -11 28 -20 35
-20 7 0 13 -4 13 -10 0 -5 9 -10 20 -10 11 0 20 -4 20 -10 0 -5 9 -10 19 -10
11 0 23 -4 26 -10 3 -5 17 -10 31 -10 13 0 24 -4 24 -10 0 -5 9 -10 20 -10 11
0 20 -5 20 -10 0 -6 3 -9 8 -9 4 1 23 1 42 0 27 -1 31 -4 20 -11 -11 -7 -3
-10 30 -11 25 -1 49 -1 53 0 5 1 6 -3 2 -9 -6 -9 30 -15 64 -11 7 2 11 -2 8
-6 -3 -5 13 -10 36 -12 40 -2 82 -8 82 -11 0 -1 8 -3 18 -5 9 -2 15 0 12 4 -2
4 2 8 10 8 8 0 12 -4 9 -9 -8 -13 406 -8 430 4 12 7 16 7 12 0 -6 -10 11 -11
29 -1 6 3 33 7 60 8 28 1 54 7 60 12 5 5 24 9 43 9 24 0 31 4 26 13 -5 9 -4 9
6 0 8 -8 19 -8 31 -2 11 5 28 13 38 19 14 6 21 6 24 -3 4 -9 6 -9 6 1 1 6 13
12 29 12 21 0 24 2 12 10 -11 7 -8 10 16 10 18 0 44 7 60 14 15 8 32 12 37 9
6 -3 7 -1 3 5 -4 7 -1 12 8 12 9 0 16 4 16 8 0 5 7 9 15 10 8 1 22 3 30 4 8 1
12 5 9 10 -3 4 4 8 16 8 12 0 18 5 15 10 -5 9 1 12 21 9 3 0 14 10 25 22 10
12 19 18 19 13 0 -5 5 -1 11 9 5 9 16 17 22 17 7 0 19 9 27 19 7 11 17 18 22
15 4 -3 8 2 8 10 0 9 3 15 8 15 4 -1 14 -1 22 0 13 1 13 2 0 11 -13 8 -12 10
3 10 10 0 15 5 12 10 -6 9 8 14 28 11 4 0 6 2 6 6 -3 18 1 33 9 31 4 -2 8 1 9
5 1 5 11 17 22 26 12 10 21 23 21 28 0 6 7 16 15 23 9 7 23 28 31 46 9 19 21
34 26 34 5 0 7 4 3 9 -3 5 0 15 7 23 7 7 14 20 16 28 2 8 7 17 10 20 8 5 14
27 15 48 0 6 3 12 7 12 8 0 31 67 33 98 1 12 5 22 9 22 4 0 8 19 8 43 0 24 6
49 13 56 10 11 9 12 -3 6 -12 -6 -13 -5 -2 6 14 15 18 364 4 355 -5 -3 -9 1
-9 9 0 8 3 12 7 10 4 -2 7 2 7 10 0 8 -3 12 -7 10 -4 -2 -7 12 -8 32 -1 19 -5
40 -10 47 -9 11 -10 17 -14 70 -1 14 -6 22 -10 20 -7 -5 -13 36 -9 59 1 5 -3
6 -9 2 -6 -4 -10 4 -10 19 0 14 -4 26 -9 26 -8 0 -22 35 -18 44 1 2 -5 12 -14
22 -9 11 -22 33 -30 51 -7 17 -17 29 -21 27 -4 -3 -8 2 -8 11 0 10 -5 13 -12
9 -6 -4 -8 -3 -5 3 4 6 -9 28 -29 49 -20 22 -43 49 -51 62 -8 12 -19 22 -24
22 -4 0 -31 23 -58 50 -28 28 -56 50 -63 50 -8 0 -20 9 -28 20 -8 11 -23 20
-33 20 -10 0 -15 5 -12 10 3 6 0 10 -8 10 -8 0 -41 14 -72 30 -31 17 -64 30
-72 30 -8 0 -11 5 -8 10 3 6 -5 10 -19 10 -13 0 -27 6 -29 13 -4 10 -6 10 -6
0 -1 -7 -6 -13 -12 -13 -5 0 -7 5 -4 10 3 6 -3 10 -14 10 -24 0 -73 20 -83 35
-5 7 -8 6 -8 -1 0 -6 -7 -11 -15 -11 -8 0 -12 4 -9 9 4 7 -45 12 -93 11 -7 -1
-10 3 -7 8 3 5 -16 9 -41 9 -34 0 -44 3 -39 13 6 9 5 9 -7 0 -11 -9 -19 -9
-26 -2 -8 8 -13 8 -17 0 -4 -6 -13 -11 -19 -11 -7 0 -7 4 2 9 10 6 -63 10
-193 11 -166 0 -206 -2 -200 -12 6 -10 5 -11 -7 -1 -11 9 -19 9 -26 2 -8 -8
-13 -8 -17 0 -4 6 -13 11 -19 11 -7 0 -6 -4 3 -11z m120 -319 c23 12 239 10
264 -2 10 -6 16 -6 13 -1 -3 5 4 10 16 10 18 2 19 0 7 -8 -12 -8 -11 -10 5 -8
57 4 96 -1 89 -13 -5 -8 0 -7 11 2 10 8 16 10 12 3 -5 -8 3 -12 25 -13 18 0
41 -1 51 -1 9 0 15 -4 12 -10 -4 -5 2 -9 12 -9 11 0 23 -4 29 -10 5 -5 24 -10
41 -12 17 -1 29 -6 27 -10 -3 -4 6 -8 20 -8 14 0 26 -4 26 -10 0 -5 7 -10 16
-10 8 0 22 -7 31 -15 8 -8 19 -12 25 -9 7 4 8 2 4 -4 -4 -7 -1 -12 8 -12 9 0
16 -4 16 -8 0 -4 14 -16 31 -26 38 -23 109 -94 109 -110 0 -6 9 -18 20 -26 11
-8 20 -21 20 -29 0 -8 3 -11 7 -8 7 8 33 -38 33 -59 0 -8 5 -14 10 -14 6 0 10
-9 10 -20 0 -11 5 -20 10 -20 6 0 10 -13 10 -30 0 -16 5 -30 10 -30 6 0 10
-16 10 -36 0 -19 4 -33 8 -30 5 3 10 -23 11 -57 1 -34 8 -68 14 -76 9 -12 9
-13 0 -7 -14 8 -18 -15 -6 -28 11 -11 12 -35 2 -42 -6 -3 -5 -12 3 -22 7 -9 8
-13 2 -9 -7 4 -11 -13 -12 -49 0 -31 -7 -63 -14 -72 -7 -9 -8 -13 -2 -9 6 3
11 0 11 -8 0 -8 -4 -12 -9 -9 -7 4 -13 -34 -9 -58 0 -5 -3 -8 -7 -8 -5 0 -9
-7 -10 -15 -1 -8 -3 -22 -4 -30 -1 -8 -5 -15 -10 -15 -4 0 -8 -12 -8 -26 0
-14 -4 -23 -10 -19 -5 3 -10 -3 -10 -14 0 -12 -4 -21 -10 -21 -5 0 -10 -6 -10
-13 0 -7 -9 -23 -19 -34 -11 -12 -17 -24 -14 -27 4 -3 -1 -6 -10 -6 -10 0 -17
-8 -17 -20 0 -11 -3 -19 -7 -17 -5 1 -9 -1 -11 -5 -5 -13 -53 -58 -62 -58 -5
0 -14 -8 -19 -17 -6 -10 -11 -15 -11 -10 0 4 -14 -6 -31 -23 -18 -16 -41 -30
-51 -30 -11 0 -16 -4 -13 -10 4 -6 -5 -10 -20 -10 -15 0 -24 -4 -20 -10 3 -5
-1 -10 -10 -10 -8 0 -24 -4 -35 -10 -11 -5 -29 -14 -40 -20 -11 -5 -34 -10
-50 -10 -18 0 -29 -4 -25 -10 4 -6 -9 -10 -32 -10 -22 0 -45 -6 -52 -12 -11
-11 -12 -10 -6 2 6 12 5 13 -6 3 -7 -7 -31 -13 -54 -13 -23 0 -46 -5 -52 -11
-8 -8 -13 -8 -17 0 -4 6 -13 11 -19 11 -8 0 -7 -3 2 -9 8 -5 -28 -9 -94 -10
-74 -1 -112 2 -123 11 -12 10 -14 10 -8 1 5 -9 -1 -13 -19 -13 -17 0 -24 4
-19 12 4 7 3 8 -4 4 -19 -12 -53 -16 -47 -5 5 8 -51 15 -79 10 -4 -1 -13 2
-20 7 -10 7 -37 12 -88 15 -9 1 -14 5 -12 9 3 4 -7 8 -23 8 -15 0 -37 7 -47
15 -10 8 -23 12 -27 9 -5 -3 -9 0 -9 6 0 6 -4 9 -9 6 -4 -3 -17 1 -27 9 -10 8
-27 15 -37 15 -10 0 -15 5 -12 10 3 6 -1 10 -10 10 -9 0 -23 7 -32 15 -8 8
-19 13 -24 9 -5 -3 -8 -2 -7 3 2 4 -1 9 -5 10 -4 1 -21 16 -38 34 -16 17 -29
29 -29 26 0 -4 -11 4 -25 17 -14 13 -25 28 -25 35 0 6 -5 11 -11 11 -5 0 -7 5
-4 10 3 6 -1 10 -9 10 -9 0 -16 7 -16 16 0 8 -5 12 -10 9 -6 -4 -10 -3 -9 2 4
22 -2 43 -11 38 -5 -3 -10 3 -10 14 0 12 -4 21 -10 21 -5 0 -10 9 -10 20 0 11
-4 20 -10 20 -5 0 -10 12 -10 26 0 15 -4 23 -10 19 -6 -4 -10 -3 -9 2 4 23 -2
64 -9 59 -4 -2 -9 5 -9 17 -5 74 -7 86 -16 80 -5 -3 -4 4 2 15 14 25 14 43 1
22 -8 -12 -10 -11 -10 5 0 12 6 27 13 34 10 11 9 12 -1 6 -11 -6 -13 7 -11 66
2 41 7 80 12 87 6 8 6 12 -2 12 -6 0 -11 5 -11 11 0 5 6 7 13 3 10 -6 10 -4 0
7 -7 7 -13 18 -13 24 0 5 5 3 10 -5 7 -11 10 -5 11 25 1 22 2 46 2 52 -1 7 3
10 8 7 8 -4 14 34 10 59 -1 5 3 6 9 2 5 -3 10 3 10 14 0 11 5 23 10 26 6 3 10
18 10 32 0 15 3 23 6 20 9 -9 43 55 36 67 -3 5 0 6 6 2 7 -4 12 -4 12 1 0 4
14 24 30 43 16 19 30 39 30 44 0 5 3 6 6 3 4 -3 19 7 34 23 16 17 33 30 40 30
6 0 9 4 6 9 -4 5 7 15 24 23 16 7 30 16 30 20 0 5 9 8 20 8 11 0 20 5 20 10 0
6 9 10 21 10 11 0 17 5 14 10 -4 6 9 10 32 10 28 0 34 3 23 10 -12 8 -11 10 7
10 12 0 25 5 28 10 3 6 17 10 30 10 13 0 27 5 30 10 3 6 30 10 58 10 37 0 48
3 37 10 -11 7 -3 10 30 11 52 1 79 5 88 13 3 4 10 2 15 -3 6 -6 17 -7 27 -1z"/>
<path d="M15000 12860 l0 -1060 1050 0 c926 0 1050 2 1051 15 2 24 4 29 13 44
6 10 5 12 -3 7 -14 -9 -11 30 3 53 6 10 5 12 -2 7 -16 -10 -15 16 1 33 10 11
10 13 0 7 -10 -6 -13 12 -13 73 l0 81 -870 0 -870 0 0 300 0 300 720 0 720 0
0 33 c0 18 6 39 13 46 10 11 10 13 0 7 -9 -5 -13 0 -13 16 0 13 6 30 13 37 10
11 10 13 0 7 -9 -5 -13 0 -13 16 0 13 6 30 13 37 9 11 9 12 0 7 -10 -5 -12 4
-11 33 1 26 5 38 12 34 6 -4 5 1 -3 10 -7 9 -10 17 -5 17 14 0 -20 20 -34 20
-8 0 -10 -5 -6 -12 6 -10 4 -10 -7 0 -17 16 -83 17 -73 0 5 -7 3 -8 -7 -2 -24
15 -62 17 -53 2 5 -10 4 -11 -7 0 -7 6 -24 12 -37 12 -16 0 -21 -4 -16 -12 6
-10 4 -10 -7 0 -7 6 -19 12 -27 12 -8 0 -10 -5 -6 -12 6 -10 4 -10 -7 0 -17
16 -83 17 -73 0 5 -7 3 -8 -7 -2 -24 15 -62 17 -53 2 5 -10 4 -11 -7 0 -17 16
-63 16 -53 0 5 -7 3 -8 -7 -2 -23 14 -62 17 -53 3 5 -8 3 -9 -7 -3 -22 13 -81
16 -73 2 5 -7 3 -8 -7 -2 -22 13 -81 16 -73 2 5 -7 3 -8 -7 -2 -23 14 -81 15
-73 1 5 -9 4 -9 -7 1 -17 16 -63 16 -53 0 5 -7 3 -8 -7 -2 -24 15 -62 17 -53
2 5 -10 4 -11 -7 0 -7 6 -24 12 -37 12 -16 0 -21 -4 -16 -12 6 -10 4 -10 -7 0
-7 6 -19 12 -27 12 -8 0 -10 -5 -6 -12 6 -10 4 -10 -7 0 -17 16 -83 17 -73 0
5 -7 3 -8 -7 -2 -24 15 -62 17 -53 2 5 -10 4 -11 -7 0 -7 6 -24 12 -37 12 -16
0 -21 -4 -16 -12 6 -10 4 -10 -7 0 -7 6 -19 12 -27 12 -8 0 -10 -5 -6 -12 6
-10 4 -10 -7 0 -17 16 -83 17 -73 0 5 -7 3 -8 -7 -2 -24 15 -62 17 -53 2 5
-10 4 -11 -7 0 -7 6 -23 12 -36 12 l-23 0 0 280 0 280 853 1 c468 1 855 1 860
0 11 -2 8 24 -5 38 -10 11 -10 13 0 7 8 -5 12 0 12 16 0 13 -6 30 -12 37 -11
11 -10 12 0 7 15 -9 13 29 -2 53 -6 10 -5 12 2 7 17 -10 16 56 0 73 -11 11
-10 12 0 7 15 -9 13 29 -2 53 -6 10 -5 12 2 7 7 -4 12 -2 12 3 0 8 -315 11
-1040 11 l-1040 0 0 -1060z"/>
<path d="M17580 12860 l0 -1060 960 0 960 0 0 160 0 160 -780 0 -780 0 0 900
0 900 -180 0 -180 0 0 -1060z"/>
<path d="M19880 12860 l0 -1060 960 0 960 0 0 160 0 160 -780 0 -780 0 0 900
0 900 -180 0 -180 0 0 -1060z"/>
<path d="M1260 12820 l0 -1061 178 1 177 2 0 673 c0 370 -3 671 -7 669 -8 -5
-4 23 5 32 4 4 7 14 7 23 0 14 -2 14 -10 1 -7 -12 -9 -10 -7 7 0 12 4 20 7 18
4 -2 7 2 7 10 0 8 -4 12 -8 10 -9 -6 -6 22 4 31 10 10 9 26 -1 20 -4 -2 -9 5
-9 17 -2 15 0 18 6 9 5 -8 8 2 7 26 0 22 -3 39 -6 37 -3 -2 -6 14 -6 36 -1 44
8 49 30 17 9 -12 16 -18 16 -13 0 5 7 -1 16 -13 8 -12 20 -20 25 -16 5 3 9 2
8 -3 -4 -21 2 -33 18 -33 9 0 14 -3 10 -6 -7 -8 59 -74 74 -74 7 0 10 -3 6 -6
-7 -7 256 -272 266 -267 4 2 7 -1 7 -7 0 -7 14 -25 30 -40 17 -15 30 -33 30
-40 0 -6 3 -9 8 -7 9 6 52 -39 45 -47 -4 -3 -1 -6 4 -6 15 0 83 -67 76 -74 -4
-3 -1 -6 6 -6 15 0 81 -66 74 -74 -4 -3 -1 -6 4 -6 13 0 104 -86 97 -92 -2 -3
7 -11 21 -18 14 -7 25 -19 25 -26 0 -7 14 -21 30 -31 17 -9 30 -20 30 -23 0
-9 75 -90 83 -90 7 0 57 -49 57 -56 0 -8 57 -64 65 -64 12 0 64 -64 59 -72 -5
-7 10 -12 29 -9 4 0 6 -2 6 -6 -3 -17 1 -36 6 -31 7 7 75 -60 75 -74 0 -5 5
-6 10 -3 6 3 10 3 10 -2 0 -4 11 -21 24 -36 17 -19 26 -24 29 -15 4 9 6 8 6
-3 1 -19 71 -96 71 -78 0 8 7 1 15 -16 8 -16 29 -39 45 -50 16 -11 30 -26 30
-33 0 -7 4 -10 10 -7 6 3 10 1 10 -5 0 -6 11 -22 25 -35 24 -25 27 -25 190
-25 l165 0 0 1060 0 1061 -180 -1 c-184 -2 -199 -5 -167 -39 10 -11 10 -13 0
-7 -8 4 -13 2 -13 -6 0 -8 6 -20 13 -27 10 -11 10 -13 0 -7 -17 9 -17 -16 0
-33 10 -11 10 -13 0 -7 -8 4 -13 2 -13 -6 0 -8 6 -20 13 -27 10 -11 10 -13 0
-7 -8 4 -13 2 -13 -6 0 -8 6 -20 13 -27 10 -11 10 -13 0 -7 -8 4 -13 2 -13 -6
0 -8 6 -20 13 -27 10 -11 10 -13 0 -7 -8 4 -13 2 -13 -6 0 -8 6 -20 13 -27 10
-11 10 -13 0 -7 -8 4 -13 2 -13 -6 0 -8 6 -20 13 -27 10 -11 10 -13 0 -7 -8 4
-13 2 -13 -6 0 -8 6 -20 13 -27 10 -11 10 -13 0 -7 -8 4 -13 2 -13 -6 0 -8 6
-20 13 -27 10 -11 10 -13 0 -7 -17 9 -17 -16 0 -33 10 -11 10 -13 0 -7 -8 4
-13 2 -13 -6 0 -8 6 -20 13 -27 10 -11 10 -13 0 -7 -17 10 -17 -35 0 -53 6 -8
7 -11 1 -8 -15 8 -16 -94 -1 -112 9 -11 9 -13 1 -8 -14 8 -14 -150 0 -172 6
-10 5 -12 -2 -7 -16 10 -16 -36 1 -53 7 -8 7 -11 1 -8 -14 8 -14 -150 0 -172
6 -10 5 -12 -2 -7 -16 10 -16 -36 1 -53 7 -8 7 -11 1 -8 -14 8 -14 -150 0
-172 6 -10 5 -12 -2 -7 -16 10 -16 -36 1 -53 7 -9 7 -11 1 -8 -9 5 -11 -21
-10 -93 1 -55 -2 -100 -7 -100 -5 0 -26 18 -48 40 -22 22 -44 40 -50 40 -5 0
-13 8 -16 17 -9 24 -49 63 -64 63 -7 0 -10 3 -6 6 3 3 -88 99 -203 214 -115
114 -206 211 -203 214 4 3 1 6 -6 6 -16 0 -42 26 -34 34 4 3 1 6 -6 6 -13 0
-41 24 -41 34 0 9 -81 86 -91 86 -5 0 -9 10 -9 23 0 14 -3 18 -8 10 -5 -9 -14
-4 -27 14 -23 32 -87 97 -106 109 -8 5 -19 18 -26 29 -6 11 -16 19 -23 17 -6
-1 -9 2 -5 8 3 5 1 10 -5 10 -6 0 -8 5 -5 10 6 9 -8 14 -27 11 -5 0 -7 2 -7 7
3 16 -1 35 -7 30 -3 -3 -20 10 -37 29 -57 61 -80 82 -89 77 -5 -3 -8 -2 -7 3
3 18 -1 34 -8 30 -10 -5 -43 29 -36 36 2 3 -5 8 -16 12 -12 3 -21 10 -21 14 0
12 -69 81 -82 81 -6 0 -9 3 -5 6 3 3 -50 62 -119 130 l-124 124 -195 0 -195 0
0 -1060z"/>
<path d="M4220 12820 l0 -1060 1048 0 1047 0 12 25 c6 14 7 23 2 19 -14 -8
-11 40 4 55 7 9 8 11 1 8 -14 -8 -13 90 0 112 6 10 5 12 -2 7 -16 -10 -16 36
1 53 10 11 10 13 0 7 -9 -5 -13 0 -13 13 l0 21 -870 0 -870 0 0 300 0 300 720
0 720 0 0 25 c0 36 1 39 13 54 9 12 9 13 0 7 -8 -4 -13 -2 -13 6 0 8 6 20 13
27 10 11 10 13 0 7 -9 -5 -13 0 -13 16 0 13 6 30 13 37 10 11 10 13 0 7 -8 -4
-13 -2 -13 6 0 8 6 20 13 27 10 11 9 12 -2 6 -10 -6 -12 2 -10 40 4 47 4 48
-29 51 -23 3 -31 0 -26 -8 5 -7 3 -8 -7 -2 -8 5 -25 10 -37 12 -17 2 -22 -1
-16 -10 6 -10 5 -10 -7 -2 -8 7 -58 12 -117 13 -83 2 -102 0 -96 -11 5 -10 4
-11 -7 0 -17 15 -43 16 -33 0 5 -7 3 -8 -7 -2 -8 5 -25 10 -37 12 -17 2 -22
-1 -16 -10 6 -10 5 -10 -7 -2 -8 7 -58 12 -117 13 -83 2 -102 0 -96 -11 5 -10
4 -11 -7 0 -17 15 -43 16 -33 0 5 -7 3 -8 -7 -2 -8 5 -25 10 -37 12 -17 2 -22
-1 -16 -10 6 -10 5 -10 -7 -2 -8 7 -58 12 -117 13 -83 2 -102 0 -96 -11 5 -10
4 -11 -7 0 -17 15 -43 16 -33 0 5 -7 3 -8 -7 -2 -8 5 -25 10 -37 12 -17 2 -22
-1 -16 -10 6 -10 5 -10 -7 -2 -8 7 -58 12 -117 13 -83 2 -102 0 -96 -11 5 -10
4 -11 -7 0 -17 15 -43 16 -33 0 5 -7 3 -8 -7 -2 -23 14 -62 17 -53 3 5 -8 3
-9 -7 -3 -8 5 -18 9 -24 9 -6 0 -11 103 -13 283 l-2 282 852 1 c469 1 856 1
861 0 11 -2 8 24 -5 38 -10 11 -10 12 -1 7 14 -8 13 50 -1 73 -6 10 -5 12 2 7
16 -10 16 36 0 53 -11 11 -10 12 0 7 15 -9 13 29 -2 53 -6 10 -5 12 2 7 16
-10 15 16 0 33 -11 11 -10 12 0 6 10 -5 13 -2 10 11 -3 18 -37 19 -1041 22
l-1037 2 0 -1060z"/>
<path d="M6641 13224 c0 -11 3 -14 6 -6 3 7 2 16 -1 19 -3 4 -6 -2 -5 -13z"/>
<path d="M6276 9729 c3 -5 -10 -9 -28 -9 -19 0 -40 -6 -47 -12 -11 -11 -12
-10 -6 1 6 10 4 12 -6 5 -8 -4 -21 -9 -29 -11 -8 -1 -16 -7 -18 -12 -2 -6 -15
-11 -29 -11 -14 0 -45 -13 -70 -30 -24 -16 -48 -30 -54 -30 -5 0 -9 -4 -9 -10
0 -5 -7 -10 -15 -10 -7 0 -19 -8 -24 -17 -6 -10 -11 -14 -11 -10 0 4 -6 2 -14
-5 -8 -7 -12 -16 -9 -20 2 -5 -1 -8 -7 -8 -6 0 -8 -5 -5 -10 4 -6 1 -9 -6 -8
-7 2 -18 -7 -24 -19 -5 -13 -13 -23 -17 -23 -5 0 -8 -7 -8 -15 0 -8 -9 -29
-20 -47 -11 -18 -20 -44 -20 -58 0 -20 -2 -22 -10 -10 -7 11 -10 7 -11 -20 -1
-19 0 -46 1 -59 1 -16 -2 -21 -10 -16 -9 6 -9 2 -1 -13 6 -12 7 -23 2 -26 -5
-3 -9 -29 -9 -57 0 -33 3 -47 9 -38 12 19 11 2 -1 -21 -7 -13 -7 -21 0 -25 5
-3 10 -24 10 -46 0 -22 4 -38 8 -35 4 2 8 -3 9 -12 3 -44 8 -60 15 -56 4 3 8
-2 8 -10 0 -24 2 -30 17 -44 7 -8 10 -18 7 -24 -4 -7 -2 -8 4 -4 7 4 12 2 12
-4 0 -6 11 -22 25 -36 14 -14 23 -30 19 -35 -3 -5 0 -8 8 -7 7 2 12 -3 10 -10
-1 -8 2 -11 8 -7 5 3 10 1 10 -6 0 -7 3 -9 6 -6 4 4 14 -1 23 -11 23 -25 77
-53 86 -44 5 4 5 1 1 -5 -6 -12 0 -15 20 -12 4 0 10 -3 13 -8 12 -16 51 -33
76 -33 14 0 25 -3 25 -7 0 -5 19 -9 42 -11 23 -1 47 -7 54 -13 8 -7 14 -7 19
1 3 5 12 10 18 10 8 0 7 -4 -2 -9 -9 -6 40 -9 127 -9 78 0 139 4 137 9 -3 4 8
7 24 7 17 -1 38 5 48 13 9 8 14 9 10 3 -3 -6 0 -11 8 -11 8 0 12 4 9 9 -5 7
27 13 49 9 5 -1 6 3 2 9 -3 5 2 10 12 10 10 0 27 7 37 15 10 8 22 12 26 10 4
-3 15 4 25 15 10 11 24 20 32 20 7 0 13 3 13 8 0 4 10 12 23 17 12 6 21 16 20
23 -2 7 3 11 10 9 6 -1 11 4 10 10 -2 7 2 12 9 10 7 -1 17 8 23 21 5 12 13 22
17 22 5 0 8 7 8 16 0 9 5 12 13 8 8 -5 8 -3 -2 9 -7 9 -17 14 -22 11 -5 -3 -9
0 -9 6 0 6 -5 8 -10 5 -6 -3 -13 1 -16 9 -3 9 -9 14 -13 11 -4 -2 -19 2 -34
10 -15 8 -27 10 -27 6 0 -5 -11 -20 -25 -35 -13 -14 -22 -26 -19 -26 3 0 -1
-7 -10 -15 -8 -8 -23 -15 -33 -15 -14 0 -15 -2 -4 -9 10 -6 5 -12 -18 -22 -17
-8 -31 -17 -31 -21 0 -5 -12 -8 -26 -8 -14 0 -23 -4 -20 -8 2 -4 -10 -9 -27
-10 -17 -2 -36 -7 -41 -12 -6 -6 -22 -10 -36 -10 -14 0 -31 -5 -38 -12 -9 -9
-15 -9 -24 0 -6 6 -18 8 -27 3 -23 -11 -139 -12 -121 -1 11 7 10 9 -7 7 -12 0
-20 -4 -18 -7 2 -3 -5 -6 -15 -6 -10 0 -17 3 -15 7 3 3 -10 6 -27 7 -17 0 -35
7 -39 14 -5 7 -9 8 -9 2 0 -6 -7 -11 -15 -11 -8 0 -12 4 -9 9 3 4 -7 8 -21 8
-15 0 -40 9 -56 21 -16 11 -38 21 -48 22 -11 0 -17 5 -15 9 3 4 0 8 -6 8 -12
0 -100 85 -100 98 0 4 -9 18 -20 30 -11 12 -20 24 -20 27 1 28 -2 35 -10 30
-6 -4 -10 -3 -9 2 4 24 -2 63 -10 59 -5 -3 -8 46 -8 109 0 63 2 113 6 111 3
-2 7 12 9 32 1 20 6 38 10 42 4 3 8 12 10 20 2 8 8 17 13 18 5 2 7 8 3 13 -3
5 0 9 6 9 6 0 8 5 5 10 -3 6 -1 10 4 10 6 0 11 7 11 16 0 8 5 12 10 9 6 -3 10
3 10 15 0 12 5 18 10 15 6 -3 10 -1 10 5 0 6 5 8 10 5 6 -3 10 1 10 10 0 9 5
13 10 10 6 -3 10 -1 10 4 0 6 7 11 15 11 9 0 18 6 21 14 3 9 12 12 21 9 11 -4
14 -2 9 5 -5 8 1 12 18 12 14 0 28 5 31 10 3 6 15 10 26 10 10 0 19 5 19 10 0
6 5 10 11 10 5 0 7 -6 3 -12 -6 -10 -4 -10 8 0 9 7 32 13 51 14 20 1 34 5 32
9 -4 6 18 5 35 -1 3 -1 10 -1 15 0 44 11 88 10 102 -2 12 -9 15 -9 9 0 -4 7
-1 12 9 12 9 0 14 -4 11 -8 -2 -4 4 -8 14 -8 10 0 17 3 15 6 -2 3 6 7 18 7 17
2 19 0 7 -7 -11 -7 -5 -10 22 -10 20 0 40 -4 43 -10 3 -5 22 -10 41 -10 21 0
33 -4 29 -10 -4 -6 5 -10 19 -10 14 0 26 -4 26 -10 0 -5 6 -10 13 -10 7 0 22
-8 33 -18 10 -10 27 -21 37 -25 9 -3 17 -14 17 -22 0 -9 5 -13 10 -10 6 3 10
1 10 -5 0 -17 26 -40 45 -40 9 0 13 5 10 10 -4 6 5 10 20 10 15 0 24 4 20 10
-5 8 12 14 36 12 3 0 11 8 18 20 7 11 8 17 2 13 -6 -3 -11 -3 -11 2 0 13 -47
63 -59 63 -7 0 -10 4 -7 8 3 5 -7 15 -22 23 -15 8 -34 22 -43 31 -9 10 -24 18
-33 18 -10 0 -14 5 -11 10 3 6 -3 10 -15 10 -14 0 -19 4 -14 13 5 7 0 6 -11
-3 -11 -9 -16 -10 -11 -2 7 12 0 15 -36 15 -10 0 -15 4 -12 8 3 5 -2 10 -10
10 -19 2 -35 5 -38 9 -4 4 -49 11 -71 11 -9 0 -15 4 -13 8 3 4 -1 8 -9 8 -8 0
-12 -3 -10 -7 2 -4 -2 -7 -10 -7 -8 0 -12 4 -9 8 2 4 -47 8 -111 8 -63 0 -117
-5 -121 -10 -3 -5 -11 -6 -17 -2 -18 11 -38 12 -31 2z"/>
<path d="M10865 9732 c-7 -8 -33 -12 -72 -13 -18 -1 -33 -5 -33 -11 0 -5 -4
-7 -8 -4 -5 3 -21 -1 -36 -9 -18 -10 -25 -10 -20 -2 5 9 3 9 -7 0 -7 -7 -21
-13 -32 -13 -10 0 -15 -4 -12 -10 5 -9 -15 -15 -37 -11 -5 0 -8 -3 -8 -9 0 -5
-6 -10 -13 -10 -8 0 -22 -9 -32 -20 -10 -11 -25 -20 -33 -20 -9 0 -12 -3 -9
-7 4 -3 -3 -11 -14 -17 -12 -6 -21 -14 -20 -19 1 -4 -4 -14 -11 -21 -10 -10
-15 -11 -20 -2 -5 6 -8 1 -8 -12 0 -13 -4 -20 -10 -17 -9 6 -15 -17 -10 -40 1
-5 -2 -7 -6 -3 -9 10 -33 -22 -34 -44 0 -10 -5 -18 -11 -18 -5 0 -8 -4 -5 -9
3 -4 -1 -17 -8 -27 -11 -15 -12 -22 -3 -33 9 -12 9 -13 0 -7 -10 5 -13 -4 -13
-34 0 -23 -4 -39 -8 -36 -5 3 -9 -1 -9 -9 0 -8 4 -12 9 -9 4 3 8 0 8 -5 0 -6
-3 -11 -7 -11 -5 0 -9 -18 -10 -40 -1 -25 2 -38 8 -34 6 3 5 -4 -3 -16 -10
-18 -10 -24 -1 -27 10 -3 10 -10 2 -25 -6 -11 -7 -18 -2 -15 6 4 10 -10 11
-30 1 -19 6 -41 12 -48 8 -9 7 -14 -2 -18 -10 -4 -10 -6 0 -6 6 -1 12 -8 12
-17 0 -8 4 -13 8 -10 4 2 9 -7 10 -20 1 -14 9 -32 17 -40 8 -9 12 -20 9 -26
-4 -7 -2 -8 4 -4 7 4 12 1 12 -8 0 -9 5 -16 10 -16 6 0 10 -7 10 -16 0 -8 5
-12 10 -9 9 6 14 -8 11 -28 -1 -5 3 -6 8 -2 6 3 15 -4 21 -15 6 -11 14 -18 19
-16 4 3 14 -4 21 -15 8 -10 20 -19 28 -19 7 0 10 -5 6 -12 -4 -6 -3 -8 4 -4 6
3 18 -1 26 -10 9 -8 16 -12 16 -9 0 4 11 0 25 -9 13 -9 33 -16 45 -16 11 0 20
-4 20 -10 0 -5 10 -10 23 -10 13 0 29 -6 36 -12 11 -11 12 -10 6 2 -8 13 -6
13 7 2 9 -7 30 -14 47 -14 17 -1 28 -4 26 -8 -2 -4 2 -7 10 -7 8 0 12 5 8 10
-3 5 4 4 16 -3 25 -13 261 -12 261 2 0 4 5 8 11 8 5 0 7 -4 4 -10 -3 -5 -1
-10 4 -10 6 0 11 4 11 10 0 5 3 9 8 9 25 -4 72 2 68 9 -3 5 13 9 36 11 22 1
51 9 64 18 13 8 24 11 24 7 0 -5 4 -4 8 3 4 6 14 13 22 15 8 2 21 9 28 16 8 7
18 9 24 6 7 -4 8 -2 4 4 -4 7 -2 12 5 12 6 0 19 8 28 18 9 10 24 21 34 25 9 3
17 13 17 22 0 8 3 14 8 12 4 -1 7 0 7 3 1 3 13 17 28 32 14 14 29 38 33 52 3
14 10 23 15 20 5 -3 9 4 9 15 0 10 4 21 10 23 5 2 11 15 12 31 1 15 6 27 10
27 4 0 8 18 8 39 0 22 5 43 10 46 8 5 8 11 0 20 -8 9 -8 15 0 20 5 3 10 13 10
21 0 10 -5 12 -12 8 -10 -6 -10 -4 -3 7 16 22 18 68 3 86 -10 13 -10 17 0 20
6 3 12 9 12 14 0 6 -4 7 -10 4 -6 -4 -10 10 -10 34 0 23 -4 41 -8 41 -8 0 -38
90 -34 103 1 5 -2 6 -8 2 -5 -3 -10 1 -10 10 0 10 -5 13 -12 9 -6 -4 -8 -3 -5
3 4 6 -6 26 -22 44 -16 18 -27 37 -25 41 3 5 0 7 -8 6 -7 -2 -12 3 -10 10 1 8
-2 11 -8 7 -5 -3 -10 -1 -10 5 0 6 -4 8 -10 5 -5 -3 -10 -2 -10 3 0 5 -11 15
-25 22 -13 7 -22 17 -19 22 3 5 2 8 -3 7 -22 -4 -43 2 -38 11 3 6 -3 10 -14
10 -11 0 -23 5 -26 10 -3 6 -15 10 -26 10 -11 0 -18 4 -15 8 2 4 -12 9 -32 10
-20 2 -39 6 -42 10 -3 4 -13 8 -22 9 -10 0 -30 1 -45 2 -22 1 -25 3 -13 11 12
8 11 10 -5 7 -11 -1 -26 -6 -32 -10 -7 -5 -13 -4 -13 2 0 11 -254 13 -265 3z
m49 -119 c10 -11 37 -12 30 -2 -3 5 9 9 26 9 22 0 29 -4 24 -12 -6 -10 -4 -10
7 0 17 15 43 16 33 0 -5 -7 -3 -8 7 -2 24 14 51 16 43 2 -6 -10 -4 -10 8 0 11
9 18 10 23 2 3 -5 21 -10 39 -10 17 0 38 -6 45 -12 8 -7 11 -8 8 -2 -3 6 0 11
8 11 8 0 12 -4 9 -9 -3 -4 12 -8 33 -8 28 0 34 -3 23 -10 -12 -8 -9 -10 13
-10 15 0 27 -4 27 -10 0 -5 3 -9 8 -9 22 4 42 -2 37 -11 -3 -5 1 -10 10 -10
10 0 13 -5 9 -12 -4 -6 -3 -8 3 -5 12 8 73 -45 73 -63 0 -6 4 -9 9 -6 5 4 15
-7 23 -24 7 -16 17 -30 21 -30 5 0 6 -4 3 -9 -3 -4 1 -17 9 -27 8 -10 15 -32
15 -47 0 -18 4 -26 11 -21 7 4 7 -1 -1 -16 -8 -15 -8 -20 -1 -16 16 10 15
-156 -1 -173 -7 -8 -8 -11 -2 -8 6 3 11 0 11 -8 0 -8 -4 -12 -9 -9 -4 3 -8 -9
-8 -26 0 -17 -9 -40 -20 -52 -11 -12 -19 -27 -19 -32 3 -25 -2 -36 -13 -33 -7
1 -12 -4 -11 -10 2 -7 -4 -13 -13 -13 -8 0 -13 -3 -11 -7 5 -8 -43 -59 -53
-56 -3 0 -4 -4 -2 -10 2 -7 0 -9 -4 -5 -3 4 -18 -1 -32 -12 -13 -11 -28 -17
-33 -14 -5 3 -9 2 -9 -3 0 -11 -50 -33 -75 -33 -12 0 -25 -4 -31 -10 -5 -5
-29 -11 -52 -12 -22 -1 -39 -4 -37 -8 2 -3 -5 -7 -16 -7 -13 -1 -17 2 -12 10
5 9 3 9 -8 1 -19 -15 -71 -15 -62 0 3 6 0 6 -8 -1 -15 -15 -83 -18 -75 -4 7
11 -13 9 -31 -2 -8 -5 -13 -4 -13 2 0 6 -20 11 -46 11 -25 0 -43 4 -40 8 4 7
-14 11 -67 13 -9 0 -15 4 -12 10 4 5 -6 9 -20 9 -15 0 -24 4 -20 10 3 6 -3 10
-14 10 -12 0 -21 5 -21 10 0 6 -6 10 -14 10 -18 0 -126 110 -126 127 0 7 -4
13 -10 13 -6 0 -9 3 -9 8 3 20 -2 43 -9 38 -4 -2 -9 7 -10 22 -1 15 -7 28 -12
30 -6 2 -6 11 1 24 6 11 7 18 1 14 -6 -3 -10 29 -11 85 -1 72 1 89 11 83 11
-6 11 -5 0 8 -9 11 -10 18 -2 23 5 3 10 19 10 36 0 16 5 29 10 29 6 0 10 9 10
20 0 11 4 20 9 20 5 0 14 13 21 30 7 16 16 27 21 24 5 -3 9 5 9 18 0 18 2 20
10 8 8 -13 10 -12 10 3 0 10 5 15 10 12 6 -3 10 1 10 9 0 9 3 15 8 14 4 -2 9
2 12 7 5 13 48 35 66 35 8 0 14 3 14 8 0 12 52 32 83 32 15 0 26 3 24 8 -3 4
11 8 30 9 20 1 41 7 47 13 12 12 20 13 30 3z"/>
<path d="M13553 9734 c4 -7 -9 -11 -36 -12 -23 -1 -43 -7 -45 -12 -2 -6 -22
-10 -43 -10 -24 0 -38 -4 -34 -10 4 -6 -7 -10 -24 -10 -17 0 -31 -4 -31 -10 0
-5 -9 -10 -21 -10 -11 0 -17 -4 -14 -10 3 -5 -2 -10 -13 -10 -10 0 -32 -12
-49 -27 -16 -16 -38 -33 -49 -39 -10 -6 -23 -20 -29 -32 -5 -12 -16 -22 -23
-22 -7 0 -10 -4 -7 -10 3 -5 2 -10 -4 -10 -5 0 -15 -16 -22 -34 -7 -19 -16
-33 -21 -30 -4 3 -8 -4 -8 -15 0 -12 -4 -21 -10 -21 -5 0 -10 -8 -10 -18 0
-10 -6 -24 -12 -31 -10 -11 -10 -13 0 -7 6 4 12 2 12 -3 0 -6 -4 -11 -10 -11
-5 0 -10 -16 -10 -36 0 -19 -4 -33 -8 -30 -4 2 -8 -4 -9 -14 -1 -11 2 -22 8
-25 5 -4 5 -14 -2 -27 -6 -11 -8 -38 -5 -62 4 -22 8 -61 11 -85 3 -24 10 -51
17 -59 7 -9 8 -13 2 -9 -6 3 -11 0 -11 -8 0 -8 4 -12 9 -9 4 3 8 0 8 -7 0 -25
43 -108 53 -102 6 3 7 1 4 -4 -4 -6 2 -21 13 -33 11 -13 20 -27 20 -32 0 -4 7
-8 16 -8 8 0 12 -4 9 -10 -3 -5 -1 -10 5 -10 6 0 8 -5 4 -12 -4 -6 -3 -8 3 -5
12 8 56 -27 46 -37 -3 -3 4 -6 16 -6 13 0 19 -4 16 -10 -4 -6 -3 -10 2 -9 22
4 43 -2 38 -11 -3 -5 3 -10 14 -10 11 0 23 -4 26 -10 3 -5 15 -10 26 -10 11 0
18 -4 15 -8 -4 -7 14 -11 66 -13 10 0 20 -4 23 -10 4 -5 23 -9 43 -9 27 0 33
-3 22 -10 -12 -7 -10 -9 7 -7 12 0 20 4 18 7 -2 3 5 6 15 6 10 0 16 -4 13 -8
-2 -5 55 -8 128 -7 81 0 127 4 118 10 -9 6 -10 9 -2 9 6 0 15 -5 18 -10 4 -7
12 -7 25 0 10 5 30 10 45 10 14 0 24 4 21 8 -2 4 9 9 27 10 17 2 37 8 46 15
12 10 13 9 6 -3 -6 -12 -5 -13 6 -2 7 6 24 12 38 13 15 0 20 3 13 6 -14 5 30
33 53 33 6 0 25 12 42 28 16 15 38 32 48 38 10 6 23 19 29 30 6 10 19 26 29
35 9 9 17 22 17 28 0 7 5 9 10 6 6 -4 10 -3 9 2 -4 22 2 43 11 38 6 -3 10 3
10 14 0 12 4 21 8 21 9 0 11 8 14 54 1 14 6 22 10 20 7 -5 13 34 9 65 -2 7 2
10 9 6 9 -6 9 -2 1 13 -14 25 -14 43 -1 22 8 -12 10 -11 10 6 0 11 -6 26 -12
33 -11 11 -10 12 0 7 10 -6 12 1 10 31 -2 21 -8 45 -13 52 -5 9 -4 12 2 8 5
-3 10 0 10 8 0 8 -4 12 -9 9 -4 -3 -8 16 -8 41 0 33 -3 44 -12 39 -7 -5 -9 -2
-5 8 3 9 -3 32 -14 52 -10 20 -16 36 -13 36 3 0 -2 7 -10 16 -9 8 -13 20 -10
26 4 7 2 8 -4 4 -7 -4 -12 -1 -12 8 0 9 -4 16 -10 16 -5 0 -10 7 -10 16 0 8
-4 12 -10 9 -9 -6 -14 8 -11 28 0 4 -5 6 -11 5 -7 -2 -12 3 -10 10 1 8 -2 11
-7 8 -5 -4 -21 5 -35 19 -14 14 -30 25 -36 25 -6 0 -8 5 -4 12 4 6 3 8 -4 4
-6 -3 -18 1 -26 10 -9 8 -16 13 -16 10 0 -3 -16 3 -37 14 -20 10 -40 17 -45
14 -4 -3 -8 0 -8 5 0 6 -10 11 -23 11 -13 0 -29 6 -36 13 -11 10 -12 9 -6 -3
6 -12 5 -13 -6 -2 -7 6 -27 12 -44 12 -17 0 -37 6 -44 13 -11 10 -12 9 -6 -3
6 -12 5 -13 -6 -2 -9 8 -54 12 -148 12 -92 0 -131 -3 -121 -10 8 -5 10 -10 5
-10 -6 0 -17 6 -24 13 -8 6 -11 7 -8 1z m62 -124 c3 -5 12 -10 18 -10 7 0 6 4
-3 10 -11 7 -3 10 28 10 32 0 41 -3 36 -12 -6 -10 -4 -10 7 0 15 14 83 17 75
3 -7 -11 13 -9 32 2 7 5 12 4 12 -2 0 -6 20 -11 46 -11 25 0 43 -4 40 -8 -4
-7 14 -11 67 -13 9 0 15 -4 12 -10 -4 -5 6 -9 20 -9 15 0 24 -4 20 -10 -3 -5
3 -10 14 -10 12 0 21 -4 21 -10 0 -5 3 -9 8 -9 4 1 14 1 22 0 13 -1 13 -2 0
-11 -13 -8 -12 -10 3 -10 20 0 106 -87 107 -107 0 -7 5 -13 10 -13 6 0 10 -12
10 -26 0 -15 4 -23 10 -19 6 4 10 3 9 -2 -5 -28 2 -63 12 -57 7 4 7 -1 -1 -16
-7 -12 -8 -20 -2 -16 6 3 10 -28 11 -80 1 -47 -2 -83 -7 -80 -5 3 -9 -1 -9 -9
0 -8 3 -12 7 -10 3 2 7 -6 7 -18 2 -17 0 -19 -7 -7 -8 12 -10 11 -11 -5 -1
-11 -1 -28 0 -37 1 -10 -3 -18 -8 -18 -6 0 -11 -7 -11 -15 0 -16 -8 -29 -46
-69 -11 -13 -18 -28 -16 -34 2 -8 -3 -10 -15 -5 -10 3 -15 3 -11 -2 8 -8 -40
-55 -55 -55 -5 0 -15 -7 -24 -15 -8 -8 -19 -13 -24 -10 -5 4 -9 1 -9 -4 0 -6
-9 -11 -21 -11 -12 0 -17 -4 -14 -11 4 -6 1 -10 -6 -8 -39 5 -70 -2 -63 -13 5
-8 0 -7 -11 2 -10 8 -16 10 -12 4 4 -7 -4 -14 -21 -16 -15 -3 -36 -8 -47 -13
-16 -5 -17 -5 -5 4 12 9 11 11 -7 8 -12 -2 -26 -6 -29 -10 -12 -12 -26 -8 -18
6 6 9 5 9 -7 0 -17 -14 -129 -14 -129 0 0 5 -8 3 -17 -4 -11 -10 -14 -10 -9
-1 5 9 -3 12 -31 12 -22 0 -45 6 -52 13 -8 6 -11 7 -8 1 3 -6 0 -11 -8 -11 -8
0 -12 4 -9 9 3 4 -12 8 -33 8 -28 0 -34 3 -23 10 12 8 9 10 -12 10 -16 0 -28
5 -28 10 0 5 -3 9 -7 9 -23 -4 -43 2 -38 11 3 6 -1 10 -10 10 -10 0 -13 5 -9
12 4 6 3 8 -3 5 -12 -8 -73 45 -73 63 0 6 -4 9 -9 6 -11 -7 -42 55 -34 68 3 5
1 6 -5 2 -7 -4 -12 -1 -12 8 0 9 -4 16 -9 16 -4 0 -8 8 -8 18 0 52 -4 73 -13
67 -15 -9 -13 168 3 184 6 8 7 11 1 8 -6 -3 -11 0 -11 8 0 8 4 12 9 9 7 -4 13
35 9 59 -1 5 3 6 9 2 6 -4 10 5 10 20 0 15 4 24 10 20 6 -3 10 1 10 9 0 9 6
16 13 17 8 0 9 2 0 5 -13 6 31 54 49 54 6 0 8 3 5 6 -8 9 43 54 61 54 6 0 12
5 12 10 0 6 9 10 20 10 11 0 20 4 20 9 0 5 10 12 23 16 12 4 25 8 30 10 4 1
19 3 33 4 17 1 23 5 18 14 -5 7 0 6 11 -3 11 -9 16 -10 11 -2 -7 12 19 17 69
13 17 -2 17 0 5 8 -9 7 -10 11 -3 11 6 0 15 -4 18 -10z"/>
<path d="M15123 9729 c-6 -6 -29 -11 -51 -12 -22 -1 -44 -6 -48 -10 -4 -4 -18
-7 -31 -7 -14 0 -21 -4 -18 -10 4 -6 -7 -10 -24 -10 -17 0 -31 -4 -31 -10 0
-5 -9 -10 -21 -10 -11 0 -17 -4 -14 -10 3 -5 -2 -10 -13 -10 -10 0 -32 -12
-49 -27 -16 -16 -38 -33 -49 -40 -10 -6 -18 -16 -16 -22 1 -6 -3 -10 -10 -8
-7 1 -17 -8 -23 -20 -5 -13 -13 -23 -17 -23 -5 0 -8 -6 -8 -13 0 -7 -10 -24
-22 -37 -13 -14 -21 -26 -19 -28 9 -8 -23 -71 -33 -65 -6 4 -4 -2 4 -12 9 -11
10 -16 3 -11 -10 5 -13 -2 -13 -26 0 -19 -5 -39 -12 -46 -9 -9 -9 -12 2 -12
11 0 11 -3 2 -12 -7 -7 -12 -17 -12 -22 0 -6 5 -4 11 4 9 12 9 11 4 -5 -13
-37 -18 -98 -7 -91 6 3 9 -1 7 -11 -2 -10 -4 -18 -5 -18 -1 0 -3 -8 -5 -18 -2
-9 0 -15 4 -12 4 2 9 -17 10 -43 1 -26 6 -48 11 -50 6 -2 10 -13 10 -23 0 -13
4 -18 12 -13 6 4 8 3 5 -3 -3 -5 2 -26 13 -45 10 -20 16 -39 12 -44 -4 -4 -1
-4 6 0 6 4 12 2 12 -4 0 -6 11 -22 25 -36 14 -14 22 -30 19 -36 -4 -6 -3 -8 3
-5 6 4 13 0 17 -8 3 -8 11 -15 18 -15 8 0 20 -9 28 -20 8 -11 20 -20 28 -20 7
0 10 -5 6 -12 -4 -6 -3 -8 4 -4 6 3 17 -1 25 -9 9 -8 22 -15 31 -15 8 0 18 -4
21 -10 3 -5 15 -10 26 -10 10 0 19 -4 19 -8 0 -7 28 -12 77 -15 7 0 10 -4 7
-9 -3 -4 12 -8 33 -8 22 0 45 -6 52 -12 11 -11 12 -10 6 2 -8 13 -6 13 8 2 12
-10 48 -13 141 -11 70 2 126 7 126 11 0 4 5 8 11 8 5 0 7 -4 4 -10 -3 -5 -1
-10 4 -10 6 0 11 4 11 9 0 6 10 10 23 10 12 0 32 1 45 1 12 0 22 5 22 11 0 5
3 8 8 6 4 -3 18 0 32 6 29 12 50 18 67 19 7 1 10 5 7 10 -4 7 9 10 32 7 3 0
14 9 23 20 10 12 28 21 40 21 12 0 19 4 16 10 -3 6 1 10 9 10 8 0 20 8 25 18
6 9 11 13 11 9 0 -4 6 -2 14 5 8 7 12 16 9 21 -2 4 1 7 7 7 6 0 8 5 5 10 -4 6
-3 10 2 9 20 -3 34 2 28 11 -3 6 -1 10 6 10 7 0 10 3 6 6 -3 3 3 15 14 27 17
19 19 36 19 174 0 101 -4 153 -11 153 -5 0 -7 6 -3 13 6 10 4 10 -7 0 -7 -7
-33 -13 -57 -13 -32 0 -41 3 -36 13 6 10 4 10 -7 0 -7 -7 -19 -13 -27 -13 -8
0 -10 5 -6 13 6 9 4 9 -7 1 -8 -5 -29 -11 -48 -13 -26 -2 -31 0 -25 11 6 10 5
11 -7 2 -20 -16 -361 -16 -352 0 3 6 0 6 -8 -1 -7 -7 -20 -13 -28 -13 -12 0
-16 -9 -14 -32 1 -18 2 -45 2 -60 l1 -28 253 0 253 0 -4 -41 c-4 -33 -2 -40 9
-34 11 6 12 5 2 -6 -15 -15 -18 -43 -4 -34 5 3 3 -8 -5 -25 -9 -16 -20 -32
-25 -35 -5 -4 -7 -11 -4 -16 6 -9 -9 -14 -30 -9 -5 1 -7 -2 -3 -6 5 -4 -1 -14
-12 -21 -11 -8 -18 -19 -14 -24 3 -5 2 -9 -3 -8 -4 1 -17 1 -28 0 -17 -1 -18
-3 -5 -11 12 -8 9 -10 -13 -10 -16 0 -26 -4 -22 -10 3 -6 -5 -10 -19 -10 -14
0 -42 -9 -61 -20 -20 -11 -33 -15 -29 -9 5 8 3 9 -7 3 -15 -9 -29 -12 -66 -16
-13 -1 -23 -6 -23 -10 0 -4 -8 -8 -17 -8 -15 0 -16 2 -3 10 12 8 10 9 -7 7
-12 -2 -26 -6 -29 -10 -13 -13 -46 -8 -38 6 6 10 4 10 -7 0 -17 -16 -43 -17
-33 -1 5 7 3 8 -7 2 -22 -14 -50 -15 -65 -3 -9 7 -18 7 -33 0 -25 -14 -41 -14
-21 -1 11 7 8 10 -16 10 -16 0 -36 6 -43 13 -10 8 -12 8 -7 0 4 -7 -1 -11 -13
-10 -11 0 -17 5 -15 9 3 4 -6 8 -20 8 -14 0 -26 5 -26 12 0 6 -3 9 -6 5 -3 -3
-22 3 -42 13 -19 11 -40 16 -45 13 -6 -3 -7 -1 -3 5 4 7 2 12 -4 12 -18 0
-111 101 -104 112 4 7 2 8 -4 4 -7 -4 -12 -1 -12 8 0 9 -4 16 -10 16 -5 0 -10
12 -10 26 0 14 -4 23 -10 19 -6 -4 -10 8 -10 30 0 20 -4 34 -8 31 -5 -3 -9 1
-9 9 0 8 3 12 7 10 4 -2 7 2 7 10 0 8 -4 12 -9 9 -13 -9 -9 140 5 155 8 10 8
12 0 7 -7 -4 -11 1 -10 13 0 11 5 17 9 15 4 -3 8 10 8 29 0 19 7 40 15 47 8 7
13 16 10 20 -3 4 2 13 10 20 8 7 13 15 10 19 -2 4 5 14 16 21 10 8 19 24 19
35 0 16 2 17 10 5 8 -13 10 -12 10 3 0 10 3 16 8 14 9 -6 33 19 25 27 -4 3 4
6 16 6 12 0 20 4 17 8 -2 4 4 9 15 9 10 1 33 12 50 23 16 12 33 20 36 16 3 -3
15 0 27 7 21 12 26 13 84 18 17 2 32 7 32 11 0 4 5 8 11 8 5 0 8 -4 5 -8 -2
-4 4 -8 14 -8 10 0 16 4 14 8 -3 4 2 8 11 8 10 0 13 -5 9 -12 -5 -7 -3 -8 7
-2 18 11 89 16 109 8 26 -12 40 -13 34 -2 -4 7 -2 8 5 4 11 -7 31 -11 81 -18
14 -2 31 -8 38 -15 7 -6 22 -10 33 -8 12 3 19 1 15 -2 -9 -9 66 -43 78 -36 5
4 6 1 2 -5 -4 -7 -3 -12 2 -12 5 0 30 -20 56 -45 27 -25 49 -45 51 -45 1 0 19
13 40 30 20 16 41 27 46 24 5 -3 8 0 7 8 -2 7 3 12 10 10 10 -2 10 2 0 17 -7
11 -16 17 -20 15 -4 -3 -8 0 -8 7 0 16 -40 50 -52 43 -4 -3 -7 -2 -6 3 2 4 -1
9 -5 10 -5 1 -17 11 -27 23 -10 12 -27 22 -38 23 -12 0 -18 5 -16 9 3 4 -5 8
-18 8 -19 0 -20 2 -8 11 12 8 12 10 -5 8 -36 -3 -56 1 -51 9 2 4 -4 9 -15 10
-10 1 -28 3 -38 4 -11 1 -18 5 -16 9 3 3 -8 7 -23 7 -36 2 -55 6 -69 15 -6 4
-14 3 -18 -3 -3 -5 -12 -10 -18 -10 -7 0 -6 4 3 10 10 7 -25 10 -107 10 -74 0
-124 -4 -128 -10 -5 -8 -11 -8 -19 -1 -9 7 -16 7 -23 0z"/>
<path d="M18425 9730 c-3 -5 -26 -10 -50 -10 -24 0 -47 -4 -50 -10 -3 -5 -17
-10 -30 -10 -13 0 -27 -4 -30 -10 -3 -5 -15 -10 -26 -10 -11 0 -17 -4 -14 -10
4 -6 -5 -10 -19 -10 -14 0 -26 -4 -26 -10 0 -5 -6 -10 -14 -10 -20 0 -127
-108 -113 -114 9 -3 8 -5 0 -5 -7 -1 -13 -13 -13 -27 0 -15 -4 -23 -11 -19 -7
5 -9 -16 -7 -63 1 -39 6 -68 10 -66 5 3 8 -3 8 -13 0 -21 42 -73 59 -73 7 0 9
-4 6 -10 -3 -5 1 -10 10 -10 10 0 13 -5 9 -12 -4 -6 -3 -8 4 -4 6 3 17 -1 25
-9 9 -8 23 -15 31 -15 9 0 16 -4 16 -8 0 -4 12 -9 27 -10 15 -1 30 -7 34 -13
3 -6 9 -10 13 -10 25 4 56 0 53 -6 -3 -5 10 -9 28 -9 19 -1 42 -5 52 -9 29
-13 44 -14 37 -3 -4 6 2 6 14 -1 12 -6 25 -11 29 -10 4 1 35 1 68 0 43 -1 56
-4 45 -11 -11 -8 -9 -9 10 -6 14 3 25 5 25 6 0 1 8 3 18 5 9 2 15 0 12 -5 -2
-4 25 -8 62 -9 36 -1 73 -7 82 -14 8 -6 12 -7 8 -1 -3 6 0 11 8 11 8 0 12 -4
9 -9 -3 -4 13 -8 36 -8 23 0 39 -4 36 -9 -3 -5 0 -9 7 -8 41 1 58 -4 51 -15
-5 -8 0 -7 11 2 11 9 16 10 11 3 -4 -9 -1 -13 10 -13 9 0 32 -17 50 -37 31
-34 34 -42 32 -89 -2 -29 -6 -50 -10 -47 -7 4 -12 -20 -9 -40 1 -5 -2 -7 -6
-4 -11 6 -43 -30 -35 -39 4 -4 2 -4 -5 -1 -6 4 -18 0 -26 -8 -9 -8 -23 -15
-31 -15 -8 0 -32 -9 -51 -20 -21 -12 -33 -15 -29 -8 6 10 4 11 -7 1 -7 -7 -27
-13 -44 -13 -18 0 -35 -3 -39 -7 -9 -9 -37 -13 -32 -4 3 4 -6 7 -19 7 -13 0
-22 -3 -20 -6 2 -4 -18 -8 -46 -9 -38 -1 -49 2 -43 11 6 10 4 11 -7 1 -16 -15
-49 -17 -49 -3 0 6 -5 10 -11 10 -5 0 -7 -5 -3 -11 4 -7 -1 -7 -16 1 -15 8
-20 8 -16 1 4 -6 2 -11 -3 -11 -6 0 -11 5 -11 10 0 6 -20 10 -45 10 -25 0 -45
4 -45 10 0 5 -3 9 -7 9 -5 -1 -21 -1 -36 0 -20 1 -26 5 -21 14 5 7 0 6 -11 -3
-11 -9 -16 -10 -11 -2 7 11 -20 18 -49 12 -5 -1 -7 2 -2 6 9 9 -64 45 -77 37
-5 -4 -6 -1 -2 5 4 7 1 12 -8 12 -9 0 -16 4 -16 9 0 5 -13 14 -30 21 -16 7
-30 16 -30 21 0 5 -7 9 -16 9 -8 0 -12 5 -9 10 3 6 -1 10 -10 10 -16 0 -92
-69 -78 -71 4 0 0 -4 -10 -7 -17 -7 -16 -9 3 -30 12 -12 26 -19 32 -16 7 4 8
2 4 -4 -4 -7 -2 -12 4 -12 6 0 20 -9 32 -20 12 -11 28 -20 35 -20 8 0 11 -4 8
-10 -3 -5 3 -10 15 -10 12 0 19 -4 16 -8 -3 -5 0 -9 7 -10 26 -2 69 -17 107
-37 14 -7 33 -11 43 -10 9 2 15 -1 11 -6 -4 -8 33 -14 59 -10 4 0 7 -4 7 -9 0
-6 21 -10 48 -10 33 0 43 -3 32 -10 -12 -7 -10 -9 7 -7 12 0 20 4 18 7 -2 3 5
6 15 6 10 0 16 -4 13 -9 -3 -4 56 -7 131 -6 75 1 136 6 136 11 0 4 5 8 11 8 5
0 7 -4 4 -10 -3 -5 -1 -10 4 -10 6 0 11 4 11 9 0 8 21 11 73 12 9 0 15 4 12 9
-3 5 3 9 12 9 39 1 53 5 53 13 0 5 4 7 8 4 10 -6 95 36 117 58 9 9 25 21 36
26 10 6 19 16 19 23 0 7 9 19 20 27 11 8 20 22 20 32 0 10 5 18 12 18 6 0 8 3
5 7 -4 3 0 17 8 29 10 15 11 25 4 29 -5 4 -6 12 -2 18 5 7 10 26 11 42 2 23 1
27 -7 15 -6 -8 -11 -10 -11 -4 0 5 5 15 11 21 8 8 8 13 0 17 -6 4 -11 16 -11
27 0 11 -4 17 -10 14 -9 -5 -15 16 -11 38 1 5 -3 6 -8 3 -5 -3 -11 1 -15 9 -3
8 -13 15 -23 15 -15 0 -16 2 -3 10 12 8 9 10 -13 10 -16 0 -26 4 -22 10 3 6
-3 10 -14 10 -10 0 -21 5 -23 11 -2 6 -15 12 -30 12 -14 1 -24 5 -21 10 2 4
-5 7 -16 7 -11 0 -23 5 -26 10 -5 8 -12 7 -23 -2 -12 -10 -14 -10 -8 0 5 9 -3
12 -29 12 -26 0 -34 3 -29 13 6 9 4 9 -8 -1 -11 -9 -18 -10 -23 -2 -3 5 -31
10 -61 10 -31 0 -53 4 -50 9 7 10 -13 9 -31 -2 -6 -4 -15 -3 -18 3 -5 8 -12 7
-23 -2 -12 -10 -14 -10 -8 0 5 9 -8 12 -56 13 -35 1 -70 1 -80 0 -9 -1 -19 3
-23 9 -5 8 -11 7 -23 -2 -12 -10 -14 -10 -8 0 5 9 -3 12 -31 13 -69 3 -88 5
-98 10 -5 4 -32 12 -59 20 -58 17 -116 69 -116 105 0 17 -4 23 -12 18 -10 -6
-10 -5 -1 7 6 8 13 23 15 34 7 40 113 125 156 125 10 0 23 5 30 12 8 8 15 8
28 -3 10 -8 15 -9 11 -3 -5 8 6 13 31 16 20 3 46 8 57 12 16 6 17 6 5 -3 -12
-8 -11 -10 7 -8 12 0 20 4 18 8 -7 11 137 8 158 -3 14 -7 17 -7 13 1 -4 6 0
11 9 11 9 0 13 -4 10 -10 -3 -5 8 -9 27 -9 18 0 44 -3 58 -6 14 -4 37 -9 52
-12 17 -3 25 -10 21 -17 -4 -6 2 -4 13 4 10 8 16 10 12 6 -8 -10 35 -36 59
-36 8 0 12 -4 9 -8 -3 -5 1 -9 9 -10 8 -1 22 -3 30 -4 8 -1 12 -5 9 -10 -3 -4
2 -8 11 -8 9 0 13 -4 10 -10 -3 -5 1 -10 9 -10 9 0 16 -4 16 -10 0 -20 33 -9
61 21 16 17 29 25 29 18 0 -16 29 21 30 39 0 6 -7 12 -16 12 -9 0 -12 5 -8 12
4 6 3 8 -3 5 -6 -4 -16 0 -23 8 -7 8 -21 15 -31 15 -11 0 -19 5 -19 10 0 6 -7
10 -16 10 -8 0 -12 5 -9 10 3 6 -3 10 -15 10 -12 0 -18 4 -15 11 4 6 1 10 -6
8 -27 -3 -50 1 -45 9 2 4 -5 9 -17 9 -12 1 -23 7 -25 13 -3 7 -9 7 -20 -2 -12
-10 -14 -10 -8 0 5 8 1 12 -11 12 -11 0 -25 6 -32 13 -11 10 -12 9 -6 -2 6
-10 4 -12 -6 -5 -18 11 -38 16 -71 16 -16 0 -25 5 -22 10 4 6 -3 5 -14 -1 -14
-7 -23 -8 -27 -1 -9 15 -178 13 -194 -2 -11 -10 -13 -10 -7 0 9 15 -20 17 -29
2 -5 -8 -11 -8 -20 0 -9 8 -15 8 -20 0z m-68 -26 c-3 -3 -12 -4 -19 -1 -8 3
-5 6 6 6 11 1 17 -2 13 -5z"/>
<path d="M3080 9710 c0 -6 -6 -8 -12 -4 -9 5 -9 2 1 -9 11 -14 11 -20 0 -34
-10 -11 -10 -14 -1 -9 7 4 12 2 12 -6 0 -8 -6 -20 -12 -27 -10 -11 -10 -13 0
-7 6 4 12 2 12 -3 0 -8 84 -11 260 -11 256 0 260 0 260 -21 0 -13 4 -18 13
-13 10 6 10 4 0 -7 -17 -17 -17 -63 -1 -53 7 5 8 3 3 -7 -5 -7 -10 -42 -12
-77 -2 -47 1 -61 10 -56 9 5 9 3 0 -7 -7 -7 -13 -28 -13 -47 0 -24 4 -31 13
-26 10 6 10 4 0 -7 -7 -7 -13 -24 -13 -37 0 -16 4 -21 13 -16 10 6 10 4 0 -7
-7 -7 -13 -24 -13 -37 0 -16 4 -21 13 -16 10 6 10 4 0 -7 -7 -7 -13 -24 -13
-37 0 -16 4 -21 13 -16 10 6 10 4 0 -7 -7 -7 -13 -19 -13 -27 0 -8 5 -10 13
-6 10 6 10 4 0 -7 -7 -7 -13 -24 -13 -37 0 -16 4 -21 13 -16 10 6 10 4 0 -7
-7 -7 -13 -24 -13 -37 0 -16 4 -21 13 -16 10 6 10 4 0 -7 -7 -7 -13 -19 -13
-27 0 -8 5 -10 13 -6 10 6 10 4 0 -7 -7 -7 -13 -24 -13 -37 0 -16 4 -21 13
-16 10 6 10 4 0 -7 -7 -7 -13 -24 -13 -37 0 -16 4 -21 13 -16 10 6 10 4 0 -7
-7 -7 -13 -19 -13 -27 0 -8 5 -10 13 -6 10 6 10 4 0 -7 -7 -7 -13 -24 -13 -37
0 -16 4 -21 13 -16 10 6 10 4 0 -7 -7 -7 -13 -24 -13 -37 0 -16 4 -21 13 -16
8 5 8 2 -2 -9 -12 -16 -8 -17 58 -17 l71 0 0 500 0 500 267 2 268 3 0 57 1 57
-598 1 c-420 0 -598 -3 -598 -10z"/>
<path d="M4500 9710 c0 -6 6 -8 13 -4 10 6 10 4 0 -7 -7 -7 -13 -19 -13 -27 0
-8 5 -10 13 -6 10 6 10 4 0 -7 -7 -7 -13 -19 -13 -27 0 -8 5 -10 13 -6 10 6
10 4 0 -7 -16 -17 -17 -43 -1 -33 7 5 8 3 2 -7 -5 -8 -10 -25 -12 -37 -2 -17
1 -22 10 -16 10 6 10 4 2 -7 -5 -8 -11 -29 -13 -48 -2 -25 0 -31 11 -26 10 6
11 5 1 -6 -7 -7 -13 -19 -13 -27 0 -8 5 -10 13 -6 9 6 9 4 1 -7 -5 -8 -11 -29
-13 -48 -2 -25 0 -31 11 -26 10 6 11 5 1 -6 -7 -7 -13 -19 -13 -27 0 -8 5 -10
13 -6 9 6 9 4 1 -7 -5 -8 -11 -29 -13 -48 -2 -25 0 -31 11 -26 10 6 11 5 1 -6
-7 -7 -13 -19 -13 -27 0 -8 5 -10 13 -6 9 6 9 4 1 -7 -5 -8 -11 -29 -13 -48
-2 -25 0 -31 11 -26 10 6 11 5 1 -6 -7 -7 -13 -19 -13 -27 0 -8 5 -10 13 -6 9
6 9 4 1 -7 -5 -8 -11 -29 -13 -48 -2 -25 0 -31 11 -26 10 6 11 5 1 -6 -7 -7
-13 -19 -13 -27 0 -8 5 -10 13 -6 9 6 9 4 1 -7 -5 -8 -11 -29 -13 -48 -2 -25
0 -31 11 -26 10 6 11 5 1 -6 -7 -7 -13 -19 -13 -27 0 -8 5 -10 13 -6 9 6 9 4
1 -7 -5 -8 -11 -29 -13 -48 -2 -25 0 -31 11 -26 10 6 11 5 1 -6 -7 -7 -13 -19
-13 -27 0 -8 5 -10 13 -6 9 6 9 4 1 -7 -5 -8 -11 -29 -13 -46 l-2 -33 547 3
548 2 2 58 c2 63 3 63 -84 58 -25 -1 -32 1 -26 11 6 10 5 10 -7 1 -19 -15
-321 -14 -312 1 4 7 1 6 -8 -1 -19 -15 -321 -14 -312 1 4 6 0 6 -8 -1 -10 -8
-48 -12 -107 -11 l-91 2 0 197 0 197 59 0 c41 -1 57 -4 53 -12 -4 -7 -1 -6 8
1 20 16 321 15 312 -1 -4 -6 0 -6 8 1 20 16 321 15 312 -1 -4 -6 1 -5 10 2 9
8 21 11 27 7 6 -4 10 4 10 20 0 18 -4 24 -12 19 -10 -6 -10 -4 0 7 6 7 12 24
12 37 0 16 -4 21 -12 16 -9 -5 -9 -2 1 9 13 16 -12 17 -388 17 l-401 0 0 179
0 178 220 0 c162 1 218 -2 213 -11 -5 -7 -2 -7 8 1 18 14 442 15 433 1 -4 -5
2 -5 12 1 11 5 26 12 34 14 10 3 17 19 18 42 2 27 0 35 -10 29 -10 -5 -11 -4
0 7 35 38 32 38 -528 39 -379 0 -540 -3 -540 -10z"/>
<path d="M7267 9713 c-12 -11 -8 -35 5 -27 7 5 8 3 2 -7 -13 -22 -16 -81 -2
-73 7 5 8 3 2 -7 -13 -22 -16 -81 -2 -73 7 5 8 3 2 -7 -14 -23 -15 -81 -1 -73
9 6 9 4 1 -7 -16 -21 -19 -143 -3 -134 8 6 10 4 3 -6 -14 -23 -17 -62 -3 -53
8 5 9 3 3 -7 -15 -24 -17 -62 -2 -53 10 5 11 4 1 -7 -7 -7 -13 -33 -13 -57 0
-32 3 -41 13 -36 10 6 10 4 0 -7 -16 -17 -17 -43 -1 -33 7 5 8 3 2 -7 -13 -22
-16 -81 -2 -73 7 5 8 3 2 -7 -13 -22 -16 -81 -2 -73 7 5 8 3 2 -7 -14 -23 -15
-81 -1 -73 9 6 9 4 1 -7 -16 -21 -19 -143 -3 -134 8 6 10 4 3 -6 -5 -8 -10
-23 -11 -35 -3 -19 2 -21 67 -23 l70 -2 0 260 c0 177 3 261 11 261 5 0 7 -6 3
-12 -6 -10 -4 -10 7 0 7 6 19 12 27 12 8 0 10 -5 6 -12 -5 -9 -2 -9 9 1 14 11
20 11 34 0 10 -9 14 -9 10 -2 -6 9 27 12 142 11 105 -1 148 -4 144 -12 -3 -6
0 -5 8 2 7 6 24 12 37 12 16 0 21 -4 16 -12 -5 -9 -2 -9 9 1 14 11 20 11 34 0
11 -10 14 -10 9 -1 -5 8 0 12 14 12 14 0 19 -4 14 -12 -5 -9 -2 -9 9 1 14 11
20 11 34 0 9 -8 14 -9 10 -3 -4 7 15 11 54 12 42 1 58 -2 53 -10 -5 -7 -2 -8
7 -2 21 13 141 15 132 2 -4 -7 -1 -8 8 -2 21 14 74 12 88 -3 6 -7 8 -13 3 -13
-4 0 -9 -16 -10 -36 -2 -27 1 -34 10 -28 10 5 11 4 1 -7 -7 -7 -13 -24 -13
-37 0 -16 4 -21 13 -16 10 6 10 4 0 -7 -7 -7 -13 -28 -13 -47 0 -24 4 -31 13
-26 10 6 10 4 0 -7 -7 -7 -13 -24 -13 -37 0 -16 4 -21 13 -16 10 6 10 4 0 -7
-7 -7 -13 -24 -13 -37 0 -16 4 -21 13 -16 10 6 10 4 0 -7 -7 -7 -13 -24 -13
-37 0 -16 4 -21 13 -16 10 6 10 4 0 -7 -7 -7 -13 -24 -13 -37 0 -16 4 -21 13
-16 10 6 10 4 0 -7 -26 -27 -14 -36 57 -38 l70 -2 0 560 0 561 -70 0 c-64 0
-70 -2 -70 -21 0 -13 4 -18 13 -13 10 6 10 4 0 -7 -7 -7 -13 -24 -13 -37 0
-16 4 -21 13 -16 10 6 10 4 0 -7 -7 -7 -13 -24 -13 -37 0 -16 4 -21 13 -16 10
6 10 4 0 -7 -7 -7 -13 -24 -13 -37 0 -16 4 -21 13 -16 10 6 10 4 0 -7 -7 -7
-13 -24 -13 -37 0 -16 4 -21 13 -16 10 6 10 4 0 -7 -7 -7 -13 -24 -13 -37 0
-16 4 -21 13 -16 10 6 10 4 0 -7 -7 -7 -13 -24 -13 -37 0 -16 4 -21 13 -16 10
6 10 4 0 -7 -7 -7 -13 -24 -13 -37 0 -16 4 -21 13 -16 8 5 8 2 -2 -9 -12 -16
-53 -17 -472 -17 l-459 0 0 240 0 240 -63 0 c-35 0 -67 -3 -70 -7z"/>
<path d="M8829 9718 c-1 -2 -2 -253 -3 -559 l-1 -556 67 -2 68 -2 0 470 c0
259 2 471 4 471 10 0 74 -69 69 -74 -4 -3 -1 -6 5 -6 15 0 142 -128 142 -143
0 -6 3 -8 6 -5 7 8 114 -100 114 -115 0 -6 3 -8 6 -4 8 8 34 -18 34 -34 0 -7
2 -10 5 -7 8 7 172 -155 167 -164 -2 -5 2 -8 7 -8 17 0 112 -101 105 -111 -3
-5 0 -8 8 -7 7 2 12 -3 11 -9 -2 -7 3 -12 10 -10 6 1 11 -4 9 -11 -1 -8 2 -11
8 -7 5 3 10 1 10 -5 0 -6 5 -8 10 -5 9 6 14 -8 11 -27 0 -5 5 -7 12 -5 6 1 11
-4 10 -10 -2 -7 3 -12 10 -10 6 1 11 -4 10 -10 -2 -7 3 -12 10 -10 6 1 11 -5
9 -13 -2 -8 -1 -12 3 -9 8 8 61 -40 58 -52 -2 -5 3 -8 10 -6 6 1 11 -4 10 -10
-2 -7 3 -12 10 -10 6 1 11 -4 10 -10 -2 -7 3 -12 10 -10 6 1 11 -3 10 -9 -1
-7 23 -12 68 -13 l69 -2 0 561 0 561 -67 -3 -68 -3 -1 -415 c0 -228 2 -419 6
-425 10 -17 12 -63 2 -69 -5 -3 -8 7 -6 22 2 15 1 19 -2 10 -3 -10 -13 -18
-21 -18 -9 0 -14 3 -11 6 8 7 -259 274 -274 274 -6 0 -9 3 -5 6 3 4 -34 46
-83 94 -48 49 -87 90 -86 92 2 1 -6 11 -16 21 -10 9 -18 15 -18 12 0 -2 -34
30 -75 71 -41 41 -75 80 -75 86 0 6 -3 9 -6 6 -7 -8 -154 140 -154 154 0 6 -3
9 -6 5 -3 -3 -23 12 -43 34 -37 38 -39 39 -109 39 -40 0 -73 -1 -73 -2z"/>
<path d="M11960 9709 c0 -5 6 -7 13 -3 10 6 10 4 0 -7 -7 -7 -13 -19 -13 -27
0 -8 5 -10 13 -6 10 6 10 4 0 -7 -7 -7 -13 -19 -13 -27 0 -8 5 -10 13 -6 10 6
10 4 0 -7 -7 -7 -13 -19 -13 -27 0 -8 5 -10 13 -6 9 6 9 4 1 -7 -16 -20 -16
-81 -1 -73 8 5 8 3 0 -7 -7 -7 -13 -19 -13 -27 0 -8 5 -10 13 -6 10 6 10 4 0
-7 -7 -7 -13 -19 -13 -27 0 -8 5 -10 13 -6 10 6 10 4 0 -7 -7 -7 -13 -24 -13
-37 0 -16 4 -21 13 -16 10 6 10 4 0 -7 -7 -7 -13 -19 -13 -27 0 -8 5 -10 13
-6 9 6 9 4 1 -7 -5 -8 -11 -29 -13 -48 -2 -25 0 -31 11 -26 10 6 11 5 1 -6 -7
-7 -13 -19 -13 -27 0 -8 5 -10 13 -6 9 6 9 4 1 -7 -5 -8 -11 -29 -13 -48 -2
-25 0 -31 11 -26 10 6 11 5 1 -6 -7 -7 -13 -24 -13 -37 0 -16 4 -21 13 -16 10
6 10 4 0 -7 -7 -7 -13 -19 -13 -27 0 -8 5 -10 13 -6 10 6 10 4 0 -7 -7 -7 -13
-19 -13 -27 0 -8 5 -10 13 -6 10 6 10 4 0 -7 -7 -7 -13 -19 -13 -27 0 -8 5
-10 13 -6 10 6 10 4 0 -7 -7 -7 -13 -24 -13 -37 0 -16 4 -21 13 -16 10 6 10 4
0 -7 -7 -7 -13 -19 -13 -27 0 -8 5 -10 13 -6 9 6 9 4 1 -7 -5 -8 -11 -29 -13
-48 -2 -25 0 -31 11 -26 10 6 11 5 1 -6 -7 -7 -13 -19 -13 -27 0 -8 5 -10 13
-6 9 6 9 4 1 -7 -5 -8 -11 -29 -13 -48 -2 -25 0 -31 11 -26 10 6 11 5 1 -6
-36 -38 -31 -38 487 -39 l501 0 -3 62 -3 62 -127 -1 c-87 -1 -126 2 -121 10 4
6 1 7 -8 1 -22 -14 -240 -15 -232 -1 4 7 -1 6 -10 -2 -14 -11 -20 -11 -34 0
-11 10 -14 10 -9 2 5 -9 0 -13 -14 -13 -14 0 -19 4 -14 13 5 8 2 8 -9 -2 -14
-11 -20 -11 -34 0 -10 9 -14 9 -10 2 6 -9 -14 -12 -82 -11 -60 1 -88 5 -84 12
4 6 0 6 -8 -1 -8 -7 -25 -11 -37 -10 l-22 1 0 498 0 498 -70 0 c-43 0 -70 -4
-70 -11z"/>
<path d="M16208 9713 c-2 -5 -5 -23 -7 -42 -2 -25 0 -31 11 -26 10 6 11 5 1
-6 -16 -17 -17 -43 -1 -33 7 5 8 3 2 -7 -15 -24 -17 -62 -2 -53 10 5 11 4 1
-7 -16 -17 -17 -43 -1 -33 7 5 8 3 2 -7 -4 -8 -10 -34 -12 -57 -2 -33 0 -42
10 -36 10 5 11 4 1 -7 -16 -17 -17 -43 -1 -33 7 5 8 3 2 -7 -15 -24 -17 -62
-2 -53 10 5 11 4 1 -7 -7 -7 -13 -19 -13 -27 0 -8 5 -10 13 -6 10 6 10 4 0 -7
-7 -7 -13 -19 -13 -27 0 -8 5 -10 13 -6 10 6 10 4 0 -7 -16 -17 -17 -43 -1
-33 7 5 8 3 2 -7 -4 -8 -10 -34 -12 -57 -2 -33 0 -42 10 -36 10 5 11 4 1 -7
-16 -17 -17 -43 -1 -33 7 5 8 3 2 -7 -15 -24 -17 -62 -2 -53 10 5 11 4 1 -7
-7 -7 -13 -19 -13 -27 0 -8 5 -10 13 -6 10 6 10 4 0 -7 -7 -7 -13 -24 -13 -37
0 -16 4 -21 13 -16 10 6 10 4 0 -7 -7 -7 -13 -28 -13 -47 0 -24 4 -31 13 -26
10 6 10 4 0 -7 -7 -7 -13 -24 -13 -37 0 -16 4 -21 13 -16 10 6 10 4 0 -7 -16
-17 -17 -43 -1 -33 7 5 8 3 2 -7 -4 -8 -10 -32 -11 -55 l-3 -41 70 -2 70 -2 0
560 0 561 -64 0 c-36 0 -66 -3 -68 -7z"/>
<path d="M16727 9713 c-12 -12 -8 -55 5 -47 7 5 8 3 3 -7 -5 -7 -10 -42 -12
-77 -2 -47 1 -61 10 -56 9 5 9 3 0 -7 -7 -7 -13 -28 -13 -47 0 -24 4 -31 13
-26 10 6 10 4 0 -7 -16 -17 -17 -43 -1 -33 7 5 8 3 3 -7 -15 -23 -16 -100 -2
-93 8 5 8 3 0 -7 -7 -7 -13 -24 -13 -37 0 -16 4 -21 13 -16 10 6 10 4 0 -7
-17 -17 -17 -63 -1 -53 7 5 8 3 3 -7 -5 -7 -10 -42 -12 -77 -2 -47 1 -61 10
-56 9 5 9 3 0 -7 -7 -7 -13 -28 -13 -47 0 -24 4 -31 13 -26 10 6 10 4 0 -7 -7
-7 -13 -24 -13 -37 0 -16 4 -21 13 -16 10 6 10 4 0 -7 -7 -7 -13 -24 -13 -37
0 -16 4 -21 13 -16 10 6 10 4 0 -7 -7 -7 -13 -24 -13 -37 0 -16 4 -21 13 -16
10 6 10 4 0 -7 -7 -7 -13 -19 -13 -27 0 -8 5 -10 13 -6 10 6 10 4 0 -7 -7 -7
-13 -24 -13 -37 0 -16 4 -21 13 -16 10 6 10 4 0 -7 -7 -7 -13 -24 -13 -37 0
-16 4 -21 13 -16 8 5 8 2 -2 -9 -13 -16 21 -17 538 -17 381 0 551 3 551 11 0
5 -6 7 -12 3 -10 -6 -10 -4 0 7 6 7 12 19 12 27 0 8 -5 10 -12 6 -10 -6 -10
-4 0 7 17 19 15 54 -5 70 -17 13 -17 13 -3 -5 12 -15 12 -18 1 -11 -8 4 -83 8
-167 8 -108 0 -151 3 -147 11 3 6 0 5 -8 -1 -7 -7 -24 -13 -37 -13 -16 0 -21
4 -16 13 5 8 2 8 -9 -2 -14 -11 -20 -11 -34 0 -11 10 -14 10 -9 2 5 -9 0 -13
-14 -13 -14 0 -19 4 -14 13 5 8 2 8 -9 -2 -14 -11 -20 -11 -34 0 -9 8 -14 9
-10 3 4 -7 -15 -11 -54 -12 -42 -1 -58 2 -53 10 5 7 3 8 -7 2 -22 -14 -240
-15 -232 -1 4 7 -1 6 -10 -2 -14 -11 -20 -11 -34 0 -11 10 -14 10 -9 2 5 -9 1
-13 -13 -13 -19 0 -20 8 -21 200 0 139 3 200 10 200 6 0 8 -5 4 -12 -5 -8 -3
-8 7 -2 22 14 100 14 92 1 -4 -7 1 -6 10 2 14 11 20 11 34 0 11 -10 14 -10 9
-1 -5 8 0 12 14 12 14 0 19 -4 14 -12 -5 -9 -2 -9 9 1 14 11 20 11 34 0 10 -9
14 -9 10 -2 -6 9 27 12 142 11 105 -1 148 -4 144 -12 -3 -6 0 -5 8 2 7 6 24
12 37 12 16 0 21 -4 16 -12 -5 -9 -2 -9 9 1 14 11 20 11 34 0 11 -10 14 -10 9
-1 -5 8 0 12 14 12 14 0 19 -4 14 -12 -5 -9 -2 -9 9 1 14 11 20 11 34 0 9 -8
14 -9 10 -2 -5 8 5 11 33 9 29 -2 40 1 40 11 0 8 -5 11 -12 7 -10 -6 -10 -4 0
7 6 7 12 24 12 37 0 16 -4 21 -12 16 -10 -6 -10 -4 0 7 13 14 16 40 5 38 -5
-1 -185 -1 -400 0 l-393 1 0 179 0 178 180 1 c133 0 178 -3 173 -11 -5 -9 -3
-9 8 -1 20 16 502 16 492 1 -5 -9 -3 -9 8 0 8 6 27 13 44 15 20 2 31 9 33 22
3 13 0 16 -10 10 -10 -6 -11 -4 -2 7 5 8 11 28 13 46 l2 32 -533 1 c-294 0
-537 -3 -541 -7z"/>
<path d="M13021 9074 c0 -11 3 -14 6 -6 3 7 2 16 -1 19 -3 4 -6 -2 -5 -13z"/>
</g>
</svg>
